<?xml version="1.0" encoding="utf-8"?>
<!-- Generator: Adobe Illustrator 16.0.0, SVG Export Plug-In . SVG Version: 6.00 Build 0)  -->
<!DOCTYPE svg PUBLIC "-//W3C//DTD SVG 1.1//EN" "http://www.w3.org/Graphics/SVG/1.1/DTD/svg11.dtd">
<svg version="1.1" id="Calque_1" xmlns="http://www.w3.org/2000/svg" xmlns:xlink="http://www.w3.org/1999/xlink" x="0px" y="0px"
	 width="432px" height="432px" viewBox="0 0 432 432" enable-background="new 0 0 432 432" xml:space="preserve">
<g>
	<path fill="#90837B" d="M111.061,167.342c0.234-1.15,0.37-2.308,0.399-3.468c0.146-5.871-0.452-11.653-2.197-17.284
		c-0.324-1.048-0.741-2.066-1.104-3.102c-0.303-0.865-0.233-1.322,0.213-1.576c0.447-0.254,0.77-0.065,1.39,0.715
		c1.046,1.318,2.022,2.685,3.005,4.051c2.622,3.645,4.331,7.695,5.54,11.99c1.153,4.097,1.97,8.275,3.059,12.388
		c0.694,2.624,1.968,4.964,3.237,7.32c0.177,0.328,0.434,0.521,0.783,0.609c0.891,0.224,1.611,0.771,2.321,1.3
		c1.488,1.108,2.65,3.942,0.574,6.069c-0.264,0.27-0.521,0.552-0.811,0.791c-3.896,3.197-6.7,7.164-8.795,11.752
		c-2.353,5.152-3.49,10.526-3.669,16.132c-0.22,6.872,0.558,13.642,2.522,20.234c1.288,4.321,3.396,8.239,6.47,11.588
		c1.541,1.68,3.283,3.125,5.233,4.304c4.507,2.723,9.201,3.114,14.09,1.105c4.274-1.756,7.743-4.5,10.394-8.294
		c2.907-4.162,4.831-8.754,6.075-13.651c1.608-6.327,2.365-12.744,1.961-19.273c-0.093-1.505-0.288-3.005-0.476-4.502
		c-0.084-0.677-0.134-0.698-0.766-0.55c-3.672,0.86-7.361,1.669-10.868,3.103c-4.99,2.04-9.104,5.182-12.082,9.723
		c-1.021,1.557-1.856,3.206-2.22,5.058c-0.146,0.748-0.196,1.485-0.029,2.244c0.19,0.863-0.272,1.578-1.041,1.706
		c-0.792,0.132-1.41-0.357-1.57-1.253c-0.332-1.845-0.018-3.624,0.584-5.364c1.054-3.043,2.871-5.605,5.068-7.915
		c3.719-3.911,8.31-6.344,13.421-7.893c2.628-0.796,5.302-1.405,7.988-1.964c0.986-0.206,0.996-0.223,0.811-1.166
		c-0.707-3.587-1.814-7.035-3.56-10.264c-2.069-3.828-4.877-6.959-8.647-9.176c-1.367-0.804-2.594-1.796-3.847-2.755
		c-0.414-0.317-0.771-0.679-0.9-1.214c-0.238-0.987,0.417-1.732,1.412-1.56c0.401,0.069,0.805,0.193,1.175,0.363
		c0.398,0.183,0.646,0.107,0.838-0.271c0.093-0.183,0.212-0.353,0.323-0.525c2.53-3.901,4.24-8.125,5.19-12.684
		c0.629-3.019,1.388-6.011,2.187-8.994c1.465-5.469,4.161-10.275,7.637-14.687c0.383-0.485,0.756-0.977,1.143-1.459
		c0.282-0.354,0.645-0.555,1.077-0.31c0.407,0.232,0.513,0.622,0.37,1.069c-0.104,0.326-0.198,0.657-0.324,0.976
		c-1.637,4.151-2.505,8.467-2.894,12.904c-0.23,2.64-0.337,5.274-0.171,7.918c0.045,0.718,0.154,1.432,0.226,2.148
		c0.046,0.455,0.254,0.482,0.623,0.3c6.718-3.306,13.317-6.774,19.226-11.477c4.646-3.699,7.273-8.466,8.574-14.126
		c1.491-6.49,0.789-12.817-1.364-19.036c-1.496-4.321-3.53-8.408-5.552-12.498c-0.456-0.922-0.895-1.854-1.331-2.786
		c-0.131-0.279-0.252-0.566-0.335-0.862c-0.124-0.437,0.003-0.817,0.362-1.101c0.331-0.262,0.704-0.253,1.07-0.099
		c0.451,0.189,0.807,0.517,1.14,0.868c0.687,0.725,1.275,1.527,1.854,2.338c4.616,6.462,8.046,13.482,9.86,21.239
		c1.106,4.727,1.792,9.509,1.485,14.387c-0.03,0.477-0.093,0.951-0.141,1.429c0.361,0.107,0.513-0.177,0.712-0.328
		c4.706-3.571,6.644-8.484,6.883-14.22c0.188-4.512-0.529-8.866-2.026-13.134c-2.11-6.018-4.427-11.963-6.306-18.063
		c-1.011-3.282-1.938-6.578-2.478-9.973c-0.112-0.711-0.197-1.427-0.294-2.141c-0.009-0.068-0.01-0.137-0.012-0.206
		c-0.026-0.843,0.28-1.463,0.807-1.636c0.613-0.201,1.197,0.074,1.67,0.892c1.169,2.02,2.211,4.107,3.208,6.217
		c1.539,3.258,3.192,6.456,4.903,9.627c2.385,4.418,3.653,9.229,4.813,14.073c0.151,0.633,0.299,1.267,0.456,1.898
		c0.012,0.05,0.089,0.083,0.2,0.182c0.05-0.963-0.001-1.867-0.101-2.77c-0.321-2.902-0.962-5.751-1.45-8.625
		c-0.287-1.69-0.618-3.374-0.912-5.063c-0.15-0.864-0.01-1.244,0.459-1.417c0.523-0.193,0.988,0.059,1.327,0.825
		c2.22,5.017,4.753,9.897,6.619,15.067c1.238,3.427,2.092,6.959,2.676,10.556c0.342,2.101,0.637,4.208,0.5,6.347
		c-0.135,2.096-0.76,4.054-1.9,5.806c-1.497,2.3-3.047,4.566-4.916,6.595c-3.598,3.905-7.828,6.98-12.44,9.559
		c-2.247,1.256-4.561,2.383-6.862,3.533c-8.801,4.394-17.226,9.409-25.079,15.346c-3.61,2.729-6.808,5.874-9.154,9.8
		c-0.672,1.125-1.214,2.298-1.589,3.559c-0.164,0.555-0.086,0.944,0.254,1.412c2.73,3.758,4.703,7.886,5.885,12.38
		c0.296,1.126,0.491,2.279,0.727,3.42c0.141,0.679,0.145,0.694,0.789,0.563c0.604-0.124,1.207-0.259,1.806-0.408
		c0.777-0.193,0.796-0.2,0.843-1.027c0.096-1.646,0.271-3.283,0.493-4.914c0.668-4.907,1.685-9.733,3.514-14.352
		c1.83-4.619,4.586-8.587,8.492-11.698c2.077-1.654,4.4-2.777,7.105-2.97c6.153-0.44,9.623,4.001,10.335,8.404
		c0.479,2.961-0.164,5.731-1.388,8.401c-1.598,3.486-3.979,6.397-6.738,9.019c-3.037,2.883-6.462,5.21-10.238,7.009
		c-0.677,0.323-0.935,0.722-0.968,1.479c-0.399,9.104,0.254,18.103,2.511,26.958c0.38,1.494,0.644,3.017,0.961,4.526
		c0.034,0.161,0.019,0.343,0.185,0.462c0.289-0.05,0.205-0.306,0.245-0.48c1.895-8.271,6.325-14.893,13.06-19.996
		c1.704-1.292,3.544-2.348,5.692-2.758c2.883-0.55,5.339,0.59,6.735,3.179c0.975,1.806,1.227,3.769,1.166,5.785
		c-0.089,2.977-0.806,5.838-1.659,8.667c-1.261,4.179-2.998,8.175-4.752,12.163c-2.223,5.054-4.568,10.055-6.573,15.202
		c-1.96,5.031-3.484,10.188-4.309,15.532c-0.34,2.207-0.537,4.435-0.134,6.663c0.399,2.202,1.298,2.696,3.413,1.91
		c1.079-0.402,2.003-1.046,2.847-1.814c1.876-1.706,3.298-3.765,4.576-5.929c1.817-3.077,3.321-6.314,4.807-9.558
		c3.098-6.769,6.03-13.608,8.651-20.579c0.169-0.448,0.354-0.895,0.584-1.313c0.222-0.403,0.594-0.574,1.049-0.393
		c0.422,0.168,0.524,0.541,0.449,0.937c-0.186,0.977-0.445,1.937-0.764,2.88c-1.799,5.334-3.973,10.523-6.084,15.736
		c-1.726,4.261-3.532,8.488-5.718,12.539c-1.735,3.217-3.774,6.219-6.384,8.804c-1.006,0.996-2.12,1.851-3.383,2.5
		c-3.053,1.569-6.213,1.172-8.793-1.103c-1.854-1.634-3.048-3.697-3.824-6.011c-1.043-3.107-1.235-6.313-1-9.56
		c0.393-5.41,2.161-10.456,4.135-15.438c2.4-6.063,5.257-11.923,8.05-17.811c1.94-4.09,4.001-8.125,5.769-12.296
		c0.522-1.233,0.957-2.498,1.221-3.815c0.054-0.269,0.1-0.541,0.116-0.813c0.081-1.271-0.081-1.438-1.375-1.259
		c-1.42,0.196-2.687,0.806-3.884,1.567c-2.078,1.321-3.832,3.006-5.39,4.897c-3.632,4.408-5.766,9.458-6.423,15.131
		c-0.354,3.057-0.102,6.098,0.261,9.136c0.024,0.204,0.076,0.405,0.087,0.609c0.104,1.971-1.445,3.053-3.282,2.295
		c-0.712-0.293-1.289-0.779-1.839-1.301c-1.303-1.237-2.349-2.684-3.368-4.151c-3.021-4.344-4.931-9.16-6.078-14.302
		c-1.114-4.997-1.877-10.041-2.169-15.158c-0.153-2.676-0.192-5.351-0.188-8.029c0.001-0.373,0.071-0.753-0.079-1.164
		c-0.783,0.059-1.512,0.365-2.27,0.542c-0.386,0.09-0.342,0.349-0.318,0.634c0.092,1.128,0.204,2.256,0.252,3.387
		c0.434,10.075-1.379,19.743-5.379,28.988c-1.969,4.551-4.641,8.675-8.39,11.966c-4.289,3.765-9.277,6.094-15.035,6.491
		c-2.668,0.184-5.278-0.311-7.753-1.313c-7.307-2.957-13.199-7.647-17.395-14.379c-3.182-5.103-5.335-10.596-6.129-16.57
		c-0.461-3.474-0.587-6.969-0.349-10.479c0.599-8.805,2.728-17.181,6.88-25.002c0.74-1.396,1.592-2.727,2.537-3.993
		c0.552-0.738,0.613-0.585,0.024-1.499c-1.596-2.474-3.599-4.587-5.793-6.528c-2.604-2.302-5.417-4.329-8.307-6.249
		c-6.696-4.45-13.621-8.503-20.865-12.004c-3.587-1.733-7.092-3.619-10.371-5.899c-4.501-3.129-8.375-6.865-11.353-11.506
		c-0.741-1.155-1.551-2.257-2.082-3.537c-0.994-2.392-1.068-4.877-0.775-7.393c0.699-6.003,2.246-11.776,4.64-17.333
		c1.575-3.657,3.371-7.21,4.941-10.868c0.081-0.189,0.16-0.382,0.27-0.555c0.298-0.47,0.719-0.656,1.119-0.514
		c0.414,0.146,0.641,0.536,0.552,1.091c-0.186,1.152-0.417,2.296-0.61,3.446c-0.628,3.721-1.481,7.403-1.86,11.165
		c-0.076,0.75-0.104,1.498-0.082,2.439c0.305-0.47,0.366-0.826,0.439-1.185c0.717-3.501,1.734-6.919,2.885-10.299
		c0.51-1.496,1.113-2.96,1.883-4.339c2.445-4.377,4.563-8.918,6.788-13.406c0.457-0.922,0.96-1.821,1.447-2.728
		c0.179-0.333,0.378-0.656,0.677-0.9c0.763-0.625,1.673-0.329,1.896,0.633c0.125,0.543,0.039,1.093-0.03,1.639
		c-0.444,3.482-1.289,6.871-2.311,10.225c-1.66,5.451-3.672,10.779-5.566,16.148c-0.787,2.23-1.703,4.422-2.227,6.738
		c-0.961,4.256-1.303,8.541-0.544,12.874c0.802,4.575,3.033,8.265,6.76,11.043c0.082,0.061,0.174,0.11,0.266,0.155
		c0.024,0.012,0.065-0.012,0.105-0.021c0.153-0.131,0.09-0.309,0.071-0.464c-0.438-3.686-0.054-7.333,0.516-10.971
		c1.535-9.803,5.495-18.566,11.374-26.506c0.429-0.579,0.874-1.147,1.396-1.649c0.273-0.263,0.561-0.509,0.915-0.658
		c0.407-0.171,0.807-0.171,1.159,0.13c0.322,0.276,0.396,0.653,0.29,1.034c-0.109,0.394-0.271,0.777-0.444,1.148
		c-1.586,3.387-3.346,6.691-4.822,10.129c-1.301,3.028-2.519,6.083-3.228,9.32c-1.457,6.652-1.078,13.149,1.465,19.507
		c1.237,3.095,3.06,5.744,5.573,7.919c4.698,4.067,9.875,7.409,15.447,10.148c1.662,0.817,3.313,1.656,4.971,2.484
		C110.51,167.196,110.729,167.381,111.061,167.342z M178.313,197.862c0.377,0.028,0.624-0.182,0.891-0.316
		c1.565-0.786,3.071-1.673,4.497-2.688c4.056-2.886,7.399-6.418,9.733-10.847c0.853-1.618,1.475-3.323,1.624-5.164
		c0.203-2.518-0.436-4.771-2.264-6.579c-1.853-1.832-4.375-1.974-6.456-0.427c-0.64,0.475-1.159,1.066-1.623,1.708
		c-1.014,1.402-1.75,2.952-2.294,4.581c-1.881,5.639-3.142,11.422-3.918,17.312C178.398,196.237,178.159,197.038,178.313,197.862z"
		/>
	<path fill="#90837B" d="M208.866,323.946c-0.237,0.185-0.242,0.467-0.315,0.72c-1.008,3.465-2.223,6.851-3.894,10.06
		c-1.3,2.496-3.01,4.662-5.164,6.481c-2.782,2.349-5.981,3.482-9.609,3.194c-5.585-0.443-10.301-2.709-13.991-6.977
		c-1.2-1.388-2.043-3-2.777-4.674c-0.13-0.295-0.145-0.679-0.531-0.875c-0.304,1.465-0.574,2.906-0.903,4.333
		c-0.596,2.585-1.477,5.071-2.719,7.42c-0.645,1.221-1.449,2.324-2.451,3.287c-2.738,2.634-7.766,3.717-11.723,0.717
		c-1.652-1.252-3.108-2.702-4.395-4.321c-2.772-3.491-5.009-7.292-6.579-11.521c-0.425,0.104-0.577,0.471-0.799,0.741
		c-2.563,3.115-5.397,5.949-8.678,8.313c-2.477,1.783-5.157,3.138-8.16,3.783c-4.184,0.898-8.193,0.331-12.022-1.53
		c-5.319-2.585-9.001-6.76-11.526-12.026c-5.209-10.86-2.628-23.675,5.25-31.685c3.865-3.93,8.613-6.146,13.938-7.266
		c4.691-0.988,9.278-0.634,13.754,1.096c1.345,0.52,2.571,1.274,3.831,2.054c0.235-0.258,0.158-0.542,0.175-0.794
		c0.354-5.419,0.925-10.805,2.467-16.042c1.303-4.424,3.386-8.389,6.795-11.579c1.467-1.372,3.055-2.561,4.951-3.269
		c1.392-0.52,2.813-0.852,4.329-0.575c1.788,0.327,3.059,1.314,3.896,2.896c0.702,1.325,1.007,2.77,1.206,4.234
		c0.43,3.152,0.232,6.303-0.091,9.45c-0.925,9.014-3.652,17.573-6.595,26.077c-1.211,3.502-2.482,6.982-3.988,10.37
		c-0.208,0.467-0.208,0.91-0.137,1.398c0.451,3.056,1.067,6.079,1.686,9.104c0.645,3.158,1.12,6.351,1.732,9.516
		c0.445,2.297,1.229,4.498,2.156,6.644c0.368,0.851,0.82,1.659,1.425,2.376c0.882,1.046,1.986,1.274,3.252,0.905
		c0.843-0.246,1.543-0.734,2.172-1.336c1.268-1.214,2.094-2.709,2.717-4.324c1.052-2.731,1.683-5.581,2.272-8.436
		c0.354-1.712,0.631-3.441,0.954-5.16c0.077-0.414,0.053-0.805-0.049-1.217c-1.454-5.866-2.06-11.831-1.872-17.862
		c0.132-4.235,0.687-8.413,2.416-12.351c1.354-3.082,3.388-5.572,6.362-7.192c3.3-1.798,6.787-2.183,10.171-0.448
		c3.699,1.896,5.733,5.042,5.707,9.298c-0.012,2.005-0.884,3.722-2.249,5.168c-1.857,1.968-4.197,3.047-6.814,3.58
		c-1.111,0.227-2.236,0.35-3.37,0.396c-0.821,0.034-0.828,0.044-0.866,0.882c-0.094,2.061-0.009,4.12,0.139,6.174
		c0.313,4.36,0.957,8.668,2.445,12.799c1.046,2.903,2.194,5.771,3.337,8.638c0.498,1.25,1.22,2.378,2.175,3.346
		c2.545,2.579,6.17,2.858,9.07,0.679c1.366-1.026,2.403-2.346,3.291-3.788c1.575-2.556,2.697-5.323,3.692-8.14
		c0.801-2.263,1.512-4.557,2.291-6.827c0.222-0.644,0.221-1.238,0.04-1.896c-1.729-6.295-2.161-12.69-1.483-19.179
		c0.499-4.789,1.658-9.386,3.822-13.699c1.215-2.421,2.8-4.554,5.063-6.129c4.965-3.455,10.837-2.884,14.88,1.605
		c3.383,3.755,4.4,8.221,3.399,13.134c-0.47,2.306-1.747,4.162-3.625,5.579c-2.957,2.231-6.323,3.395-9.988,3.746
		c-0.546,0.053-1.096,0.065-1.645,0.091c-0.777,0.037-0.787,0.038-0.789,0.836c-0.016,5.166,0.77,10.175,2.776,14.975
		c1.206,2.885,2.409,5.762,4.113,8.398c1.172,1.813,2.771,3.01,4.929,3.417c1.255,0.237,2.455,0.124,3.618-0.404
		c1.173-0.532,2.179-1.301,3.107-2.176c2.731-2.574,4.796-5.641,6.517-8.948c2.677-5.143,4.476-10.61,5.908-16.208
		c1.296-5.059,2.217-10.191,2.842-15.373c0.581-4.818,0.699-9.65,0.257-14.49c-0.076-0.831-0.074-0.819-1.086-1.01
		c-3.684-0.693-7.291-1.657-10.751-3.115c-3.631-1.53-6.979-3.542-9.945-6.142c-3.035-2.66-5.104-5.92-5.713-9.971
		c-0.393-2.615-0.029-5.134,1.298-7.465c1.861-3.268,5.176-4.771,9.007-4.146c3.356,0.548,6.067,2.283,8.488,4.55
		c4.113,3.852,6.735,8.621,8.469,13.923c0.94,2.875,1.633,5.811,2.106,8.798c0.149,0.946,0.187,0.947,1.156,1.1
		c2.883,0.453,5.791,0.659,8.698,0.841c2.202,0.138,3.839,1.128,5.029,2.942c1.251,1.905,1.885,4.024,2.184,6.261
		c0.414,3.089,0.109,6.174-0.109,9.252c-0.293,4.106-0.836,8.19-1.27,12.284c-0.463,4.369-0.883,8.747-0.666,13.15
		c0.156,3.189,0.511,6.364,1.11,9.501c0.629,3.295,2.187,6.145,4.549,8.501c3.725,3.715,8.182,6.121,13.404,6.914
		c7.396,1.123,16.903-1.223,22.121-11.257c1.199-2.306,2.073-4.716,2.167-7.344c0.188-5.307-2.482-10.617-8.169-12.67
		c-1.168-0.422-2.384-0.586-3.639-0.56c-1.466,0.032-2.653,0.614-3.667,1.617c-1.104,1.09-2.025,2.331-2.94,3.576
		c-0.122,0.166-0.223,0.349-0.359,0.501c-0.396,0.444-0.882,0.654-1.476,0.462c-0.61-0.197-0.976-0.622-1.068-1.259
		c-0.056-0.379-0.001-0.751,0.133-1.114c0.572-1.557,1.313-3.038,2.388-4.298c1.424-1.668,3.298-2.559,5.485-2.702
		c4.735-0.31,8.671,1.476,11.912,4.813c3.678,3.787,5.031,8.398,4.484,13.604c-1.221,11.611-11.072,18.582-18.537,20.299
		c-5.082,1.169-10.201,1.509-15.297,0.217c-5.596-1.419-10.75-3.847-15.042-7.758c-5.001-4.557-7.942-10.254-8.715-17.027
		c-0.556-4.869-0.374-9.732,0.098-14.588c0.484-4.986,1.068-9.961,1.585-14.944c0.307-2.965,0.547-5.938,0.854-8.903
		c0.181-1.742,0.531-3.456,1.036-5.137c0.237-0.786,0.226-0.784-0.556-1.099c-1.191-0.481-2.456-0.625-3.713-0.77
		c-0.577-0.066-1.153-0.151-1.732-0.21c-0.846-0.087-0.885-0.047-0.858,0.788c0.037,1.2,0.129,2.4,0.132,3.601
		c0.009,3.882-0.25,7.749-0.7,11.606c-0.517,4.436-1.208,8.837-2.305,13.169c-1.751,6.911-4.114,13.589-7.603,19.834
		c-1.459,2.613-3.147,5.071-5.079,7.363c-2.212,2.624-4.863,4.574-8.304,5.169c-5.164,0.895-9.893-0.2-14.078-3.402
		c-2.26-1.729-4.108-3.836-5.558-6.291C209.217,324.369,209.141,324.085,208.866,323.946z M110.493,319.212
		c0.083,3.226,0.406,6.567,1.276,9.837c0.72,2.706,1.722,5.276,3.548,7.469c2.638,3.168,5.903,4.983,10.111,4.773
		c2.893-0.145,5.465-1.238,7.845-2.828c3.672-2.453,6.658-5.603,9.276-9.129c0.271-0.364,0.321-0.708,0.224-1.148
		c-1.91-8.67-2.954-17.447-3.225-26.318c-0.014-0.448-0.13-0.777-0.476-1.069c-4.089-3.46-8.757-4.892-13.992-3.561
		c-6.244,1.587-10.526,5.549-12.927,11.524C110.826,312.068,110.511,315.544,110.493,319.212z M249.81,269.008
		c-0.025-0.41-0.016-0.682-0.062-0.945c-0.562-3.176-1.272-6.313-2.4-9.345c-1.557-4.186-3.854-7.877-7.262-10.81
		c-1.841-1.583-3.884-2.789-6.323-3.254c-3.284-0.625-5.855,0.85-6.892,4.022c-0.596,1.821-0.512,3.645-0.055,5.476
		c0.783,3.139,2.645,5.525,5.179,7.446C237.255,265.586,243.323,267.622,249.81,269.008z M151.768,311.781
		c0.33-0.195,0.363-0.527,0.466-0.802c2.947-7.913,5.589-15.923,7.406-24.181c0.888-4.029,1.531-8.094,1.336-12.244
		c-0.079-1.687-0.349-3.343-0.933-4.935c-0.201-0.549-0.448-1.077-0.854-1.515c-0.303-0.329-0.621-0.382-0.999-0.117
		c-0.516,0.361-0.907,0.836-1.271,1.337c-1.08,1.49-1.79,3.157-2.334,4.903c-1.888,6.051-3.046,12.239-3.479,18.563
		c-0.354,5.183-0.21,10.359,0.247,15.528C151.456,309.464,151.456,310.628,151.768,311.781z M230.696,290.351
		c-0.104-2.697-1.213-4.987-3.145-6.897c-0.891-0.88-2.005-1.317-3.238-1.401c-1.701-0.116-2.849,0.619-3.594,2.356
		c-1.244,2.902-2.284,5.879-3.077,8.938c-0.456,1.76-0.799,3.544-1,5.353c-0.082,0.738-0.052,0.758,0.672,0.809
		c0.93,0.066,1.852-0.054,2.769-0.176c2.183-0.29,4.33-0.737,6.312-1.75C229.318,296.086,230.639,293.62,230.696,290.351z
		 M182.522,302.264c1.628-0.002,3.211-0.26,4.732-0.847c1.142-0.44,2.15-1.078,2.866-2.092c1.003-1.419,1.117-2.928,0.285-4.457
		c-0.622-1.144-1.552-2.001-2.729-2.566c-0.764-0.366-1.55-0.49-2.395-0.242c-1.273,0.374-1.992,1.303-2.469,2.441
		c-0.81,1.931-1.463,3.917-1.864,5.977C180.548,302.544,180.358,302.265,182.522,302.264z"/>
	<path fill="#90837B" d="M235.882,227.919c0.453-0.604,0.579-1.102,0.743-1.575c2.202-6.36,5.196-12.32,8.999-17.875
		c1.067-1.559,2.152-3.103,3.519-4.424c2.744-2.657,6.283-2.598,8.941,0.153c1.272,1.316,2.016,2.929,2.575,4.638
		c0.48,1.469,0.79,2.981,1.053,4.503c0.027,0.159-0.001,0.34,0.217,0.496c0.28-0.266,0.314-0.65,0.428-0.983
		c2.368-6.962,5.175-13.736,8.659-20.22c1.903-3.541,3.941-6.998,6.456-10.15c0.878-1.102,1.824-2.143,2.901-3.059
		c3.183-2.704,6.508-2.145,8.608,1.461c1.299,2.23,1.719,4.691,1.756,7.222c0.047,3.236-0.383,6.434-0.904,9.62
		c-0.792,4.841-1.976,9.604-2.87,14.426c-0.938,5.057-1.996,10.093-2.893,15.158c-0.646,3.648-1.077,7.332-1.076,11.05
		c0.001,0.894,0.099,1.781,0.329,2.648c0.061,0.229,0.099,0.472,0.384,0.627c0.653-0.305,1.098-0.873,1.526-1.444
		c0.807-1.074,1.443-2.253,2.048-3.447c2.545-5.024,4.66-10.239,6.781-15.449c1.331-3.271,2.57-6.581,3.868-9.866
		c0.234-0.592,0.325-1.184,0.258-1.81c-0.369-3.423-0.397-6.856-0.181-10.285c0.264-4.154,0.895-8.25,2.243-12.209
		c0.355-1.041,0.788-2.049,1.373-2.986c0.496-0.796,1.103-1.494,1.894-2.007c1.809-1.173,3.841-0.723,5.006,1.093
		c0.753,1.174,0.925,2.5,0.96,3.846c0.036,1.375-0.123,2.743-0.279,4.106c-0.539,4.711-0.947,9.427-0.662,14.175
		c0.206,3.426,0.664,6.827,1.082,10.231c0.255,2.078,0.579,4.145,1.117,6.172c0.273,1.034,0.654,2.023,1.238,2.925
		c1.298,2.003,3.461,2.671,5.656,1.731c1.421-0.608,2.53-1.629,3.543-2.765c1.607-1.802,2.922-3.814,4.118-5.901
		c3.281-5.723,6.141-11.651,8.606-17.771c0.436-1.082,0.418-2.214,0.544-3.332c0.196-1.739,0.374-3.479,0.832-5.176
		c0.289-1.07,0.727-2.069,1.401-2.958c1.595-2.104,4.354-2.124,5.973-0.038c0.798,1.028,1.226,2.219,1.448,3.482
		c0.262,1.489,0.398,2.992,0.423,4.505c0.071,4.466-0.192,8.922-0.374,13.38c-0.206,5.076-0.616,10.138-1.081,15.195
		c-0.647,7.047-1.642,14.034-3.779,20.812c-0.03,0.096-0.037,0.199-0.055,0.299c0.255,0.288,0.53,0.066,0.758,0.01
		c9.378-2.321,17.724-6.575,24.726-13.306c3.645-3.503,6.691-7.457,8.782-12.09c1.344-2.979,2.123-6.091,1.946-9.384
		c-0.185-3.452-1.271-6.519-3.974-8.847c-0.948-0.816-2.016-1.419-3.216-1.785c-2.251-0.687-4.293-0.259-6.073,1.242
		c-1.733,1.461-2.798,3.36-3.315,5.562c-0.143,0.606-0.15,1.22,0.026,1.832c0.477,1.657,2.354,2.153,3.569,0.922
		c0.286-0.291,0.52-0.638,0.75-0.979c0.443-0.653,0.853-1.33,1.303-1.978c0.36-0.519,0.81-0.665,1.219-0.451
		c0.443,0.231,0.591,0.758,0.283,1.354c-0.677,1.315-1.434,2.58-2.574,3.568c-0.721,0.625-1.539,1.028-2.478,1.17
		c-2.7,0.407-4.916-1.302-5.298-4.092c-0.141-1.029-0.092-2.053,0.186-3.062c0.847-3.07,2.557-5.537,5.238-7.261
		c2.77-1.781,5.721-2.021,8.735-0.665c3.932,1.769,6.266,4.926,7.439,8.969c1.207,4.156,0.833,8.293-0.486,12.361
		c-1.495,4.61-4.056,8.62-7.19,12.266c-6.388,7.429-14.399,12.405-23.637,15.502c-2.277,0.764-4.588,1.417-6.931,1.942
		c-0.611,0.137-0.907,0.411-1.121,1.004c-1.908,5.308-4.2,10.442-7.223,15.219c-5.84,9.232-13.542,16.438-23.38,21.28
		c-4.219,2.076-8.648,3.506-13.349,3.941c-5.14,0.476-10.011-0.326-14.276-3.457c-4.455-3.271-6.604-7.766-6.824-13.234
		c-0.122-3.032,0.393-5.948,1.653-8.717c1.146-2.519,2.837-4.604,5.04-6.277c2.102-1.595,4.451-2.416,7.104-2.222
		c0.761,0.055,1.355-0.148,1.981-0.599c2.885-2.077,6.172-3.26,9.583-4.13c3.798-0.969,7.66-1.564,11.565-1.875
		c4.515-0.358,9.034-0.67,13.548-1.034c1.572-0.127,3.134-0.385,4.706-0.515c0.68-0.057,0.911-0.379,1.051-0.989
		c0.582-2.543,1.061-5.104,1.448-7.683c0.761-5.056,1.274-10.141,1.785-15.225c0.48-4.778,0.908-9.562,1.131-14.362
		c0.053-1.122,0.232-2.238,0.149-3.498c-0.354,0.35-0.454,0.712-0.61,1.033c-2.158,4.444-4.266,8.915-6.797,13.166
		c-1.161,1.949-2.416,3.834-3.948,5.518c-1.601,1.759-3.459,3.151-5.787,3.77c-3.649,0.971-6.94,0.125-9.859-2.185
		c-2.444-1.934-4.165-4.446-5.488-7.241c-0.78-1.646-1.399-3.354-1.873-5.113c-0.063-0.232-0.107-0.464-0.296-0.688
		c-0.297,0.381-0.382,0.817-0.53,1.216c-2.609,7.008-5.39,13.949-8.284,20.844c-0.65,1.55-1.352,3.078-2.206,4.53
		c-0.613,1.041-1.303,2.022-2.239,2.802c-1.84,1.531-3.83,1.419-5.507-0.296c-0.78-0.798-1.316-1.753-1.768-2.76
		c-1.157-2.588-1.787-5.326-2.252-8.105c-0.778-4.655-1.043-9.347-0.804-14.057c0.19-3.739,0.717-7.441,1.529-11.098
		c1.732-7.8,3.43-15.606,4.924-23.456c0.102-0.532,0.168-1.072,0.262-1.683c-0.533,0.073-0.825,0.364-1.135,0.608
		c-1.359,1.074-2.435,2.414-3.469,3.785c-2.867,3.8-5.115,7.963-7.118,12.265c-2.918,6.266-5.284,12.723-6.884,19.461
		c-0.641,2.697-0.695,5.435-0.921,8.165c-0.082,0.992-0.138,1.985-0.219,2.977c-0.164,2.014-2.114,3.272-4.03,2.609
		c-0.801-0.277-1.438-0.786-1.999-1.405c-0.722-0.796-1.247-1.722-1.729-2.671c-1.543-3.036-2.354-6.278-2.721-9.649
		c-0.316-2.898-0.511-5.811-1.035-8.683c-0.29-1.583-0.348-1.609-1.586-0.625c-1.354,1.077-2.469,2.382-3.491,3.766
		c-3.196,4.322-5.429,9.125-7.091,14.214c-0.318,0.978-0.615,1.967-1.105,2.877c-0.525,0.974-1.277,1.61-2.466,1.524
		c-0.72-0.053-1.303-0.406-1.83-0.862c-0.683-0.591-1.209-1.316-1.661-2.087c-2.196-3.74-3.644-7.751-4.251-12.05
		c-0.327-2.315-0.503-4.641-0.317-6.982c0.008-0.097-0.03-0.198-0.059-0.366c-0.871,0.257-1.473,0.855-2.088,1.426
		c-0.2,0.186-0.364,0.411-0.556,0.608c-0.316,0.326-0.708,0.442-1.129,0.275c-0.476-0.188-0.625-0.6-0.625-1.083
		c0-0.612,0.262-1.128,0.589-1.619c0.779-1.168,1.808-2.114,3.049-2.706c1.037-0.494,1.357-1.239,1.579-2.269
		c0.971-4.5,2.761-8.618,5.951-12.025c1.521-1.624,3.269-2.933,5.388-3.685c4.952-1.758,9.328,1.723,10.133,5.708
		c0.31,1.539,0.046,3.002-0.592,4.411c-0.742,1.638-1.921,2.91-3.362,3.954c-2.027,1.468-4.313,2.388-6.681,3.127
		c-0.49,0.153-0.99,0.279-1.482,0.428c-1.033,0.313-1.019,0.016-1.111,1.367c-0.407,5.963-0.553,11.933-0.463,17.909
		c0.006,0.376,0.053,0.753,0.103,1.127C235.697,226.961,235.775,227.324,235.882,227.919z M284.71,259.73
		c-0.149-0.053-0.212-0.092-0.276-0.094c-0.101-0.004-0.203,0.011-0.305,0.026c-1.507,0.224-2.803,0.897-3.923,1.904
		c-3.623,3.257-5.252,7.348-5.12,12.194c0.211,7.706,6.225,13.684,13.926,13.836c3.639,0.072,7.072-0.812,10.39-2.201
		c6.984-2.925,12.74-7.501,17.564-13.281c5.038-6.037,8.491-12.933,10.877-20.391c0.07-0.217,0.218-0.435,0.1-0.721
		c-0.119-0.006-0.255-0.035-0.385-0.018c-4.561,0.617-9.154,0.834-13.74,1.128c-4.558,0.292-9.091,0.753-13.569,1.673
		c-2.861,0.588-5.67,1.353-8.3,2.667c-0.449,0.225-0.922,0.42-1.302,0.781c0.172,0.345,0.5,0.398,0.754,0.549
		c1.227,0.729,2.289,1.633,3.074,2.836c1.62,2.481,1.237,5.303-1.035,7.199c-1.845,1.539-4.021,2.195-6.404,2.082
		c-2.037-0.097-3.442-1.363-3.892-3.354c-0.371-1.645-0.069-3.208,0.55-4.727C283.976,261.126,284.346,260.47,284.71,259.73z
		 M236.532,203.288c2.574-0.506,4.904-1.159,7.043-2.378c1.086-0.619,2.04-1.387,2.713-2.461c1.551-2.474,0.678-5.22-2.011-6.376
		c-1.026-0.441-2-0.374-2.945,0.202c-0.652,0.397-1.205,0.913-1.651,1.526c-0.362,0.497-0.713,1.012-0.99,1.559
		C237.451,197.803,236.985,200.456,236.532,203.288z M287.516,267.259c1.153-0.054,2.232-0.358,3.192-1.006
		c1.161-0.784,1.507-1.823,1.055-3.124c-0.441-1.273-1.329-2.167-2.544-2.677c-2.029-0.854-1.829-0.811-2.905,0.881
		c-0.829,1.303-1.268,2.733-0.912,4.306C285.672,266.842,286.295,267.315,287.516,267.259z"/>
</g>
</svg>
