<?xml version="1.0" encoding="UTF-8" standalone="no"?>
<!DOCTYPE svg PUBLIC "-//W3C//DTD SVG 1.1//EN" "http://www.w3.org/Graphics/SVG/1.1/DTD/svg11.dtd">
<svg width="100%" height="100%" viewBox="0 0 4760 4835" version="1.1" xmlns="http://www.w3.org/2000/svg" xmlns:xlink="http://www.w3.org/1999/xlink" xml:space="preserve" xmlns:serif="http://www.serif.com/" style="fill-rule:evenodd;clip-rule:evenodd;stroke-linecap:round;stroke-linejoin:round;stroke-miterlimit:1.5;">
    <g transform="matrix(1.17732e-16,1.92271,-1.36896,8.38249e-17,4034.03,-1828.63)">
        <path d="M1812.72,2333.03C1552.3,2333.03 1340.86,2121.6 1340.86,1861.17C1340.86,1600.75 1552.3,1389.32 1812.72,1389.32C2073.14,1389.32 2284.58,1600.75 2284.58,1861.17C2284.58,2121.6 2073.14,2333.03 1812.72,2333.03" style="fill:rgb(236,154,80);"/>
    </g>
    <g transform="matrix(1.17732e-16,1.92271,-1.36896,8.38249e-17,4034.03,-1828.63)">
        <path d="M1812.72,2333.03C1552.3,2333.03 1340.86,2121.6 1340.86,1861.17C1340.86,1600.75 1552.3,1389.32 1812.72,1389.32C2073.14,1389.32 2283.88,1600.75 2284.58,1861.17C2285.11,2061.38 2134.52,2268.54 1929.68,2304.5" style="fill:none;stroke:black;stroke-width:29.96px;"/>
    </g>
    <g transform="matrix(1.92271,0,0,1.36896,-1018.09,-411)">
        <path d="M1812.72,2333.03C1552.3,2333.03 1340.86,2121.6 1340.86,1861.17C1340.86,1600.75 1552.3,1389.32 1812.72,1389.32C2073.14,1389.32 2284.58,1600.75 2284.58,1861.17C2284.58,2121.6 2073.14,2333.03 1812.72,2333.03" style="fill:rgb(236,154,80);"/>
    </g>
    <g transform="matrix(1.92271,0,0,1.36896,-1018.09,-411)">
        <path d="M1812.72,2333.03C1552.3,2333.03 1340.86,2121.6 1340.86,1861.17C1340.86,1600.75 1552.3,1389.32 1812.72,1389.32C2073.14,1389.32 2283.88,1600.75 2284.58,1861.17C2285.11,2061.38 2134.52,2268.54 1929.68,2304.5" style="fill:none;stroke:black;stroke-width:29.96px;"/>
    </g>
    <path d="M840.106,3075.17L995.427,3172.06L1163.87,2987.88L1567.6,3019.02L1618.03,2951.24L1908.77,3139.23L2032,3019.7C2088.32,3187.99 2215.03,3239.81 2446.54,3118.27L2240.94,3502.48L2183.4,3457L2098.95,3474.65L2074.62,3586.86L1916.4,3553.96C1436.85,3796.8 926.712,3521.38 899.841,3160.31L840.106,3075.17Z" style="fill:rgb(242,194,130);"/>
    <g transform="matrix(1,0,0,1,1923.59,-28)">
        <path d="M840.106,3075.17L995.427,3172.06L1163.87,2987.88L1567.6,3019.02L1618.03,2951.24L1908.77,3139.23L2032,3019.7C2088.32,3187.99 2215.03,3239.81 2446.54,3118.27L2240.94,3502.48L2183.4,3457L2098.95,3474.65L2074.62,3586.86L1916.4,3553.96C1436.85,3796.8 926.712,3521.38 899.841,3160.31L840.106,3075.17Z" style="fill:rgb(242,194,130);"/>
    </g>
    <g transform="matrix(1,0,0,1,15.987,53.6807)">
        <path d="M1641.02,4247C2485.86,4253.03 2461.7,3081.66 2416.54,3095.59L2226.62,3447.88L2161.72,3388.94L2082.22,3403.54L2050.89,3539.04L1888.88,3507.55C1556.78,3681.67 1223.13,3573.73 888.377,3262.01L883.815,3129.47L789.602,3045.58C732.666,3045.89 633.426,4239.81 1641.02,4247Z" style="fill:rgb(236,154,80);"/>
    </g>
    <g transform="matrix(1,0,0,1,1939.58,25.6807)">
        <path d="M1641.02,4247C2485.86,4253.03 2461.7,3081.66 2416.54,3095.59L2226.62,3447.88L2161.72,3388.94L2082.22,3403.54L2050.89,3539.04L1888.88,3507.55C1556.78,3681.67 1223.13,3573.73 888.377,3262.01L883.815,3129.47L789.602,3045.58C732.666,3045.89 633.426,4239.81 1641.02,4247Z" style="fill:rgb(236,154,80);"/>
    </g>
    <path d="M789.602,3045.58C789.602,3045.58 563.122,4149.9 1559.59,4301.24" style="fill:none;stroke:black;stroke-width:50px;"/>
    <g transform="matrix(1,0,0,1,1923.59,-28)">
        <path d="M789.602,3045.58C789.602,3045.58 563.122,4149.9 1559.59,4301.24" style="fill:none;stroke:black;stroke-width:50px;"/>
    </g>
    <path d="M1721.14,4301.24C1923.3,4270.21 2086.11,4205.33 2206.42,4089.37C2395.24,3907.36 2479.35,3599.51 2446.54,3099.26L2240.05,3497.59L2176.91,3446.95L2093.53,3464.06L2067.22,3585.83L1906.62,3556.48C1633.94,3699.34 1333.43,3689.85 1023.57,3457.07" style="fill:none;stroke:black;stroke-width:50px;"/>
    <g transform="matrix(1,0,0,1,1923.59,-28)">
        <path d="M1721.14,4301.24C1923.3,4270.21 2086.11,4205.33 2206.42,4089.37C2395.24,3907.36 2479.35,3599.51 2446.54,3099.26L2240.05,3497.59L2176.91,3446.95L2093.53,3464.06L2067.22,3585.83L1906.62,3556.48C1633.94,3699.34 1333.43,3689.85 1023.57,3457.07" style="fill:none;stroke:black;stroke-width:50px;"/>
    </g>
    <path d="M789.602,3045.58L900.723,3166.64L899.77,3297.59L943.356,3364.46" style="fill:none;stroke:black;stroke-width:50px;"/>
    <g transform="matrix(1,0,0,1,1923.59,-28)">
        <path d="M789.602,3045.58L900.723,3166.64L899.77,3297.59L943.356,3364.46" style="fill:none;stroke:black;stroke-width:50px;"/>
    </g>
    <path d="M922.469,3099.26L997.841,3160.31L1154.98,2981.15L1555.77,3004.42L1618.07,2951.24L1911.42,3131.04L2025.25,3012.6L2074.62,3099.26" style="fill:none;stroke:black;stroke-width:50px;"/>
    <g transform="matrix(1,0,0,1,1923.59,-28)">
        <path d="M922.469,3099.26L997.841,3160.31L1154.98,2981.15L1555.77,3004.42L1618.07,2951.24L1911.42,3131.04L2025.25,3012.6L2074.62,3099.26" style="fill:none;stroke:black;stroke-width:50px;"/>
    </g>
    <path d="M2446.54,3099.26C2351.78,3183.61 2251.91,3215.43 2145.14,3176.32" style="fill:none;stroke:black;stroke-width:50px;"/>
    <g transform="matrix(1,0,0,1,1923.59,-28)">
        <path d="M2446.54,3099.26C2351.78,3183.61 2251.91,3215.43 2145.14,3176.32" style="fill:none;stroke:black;stroke-width:50px;"/>
    </g>
    <g transform="matrix(1.17732e-16,1.92271,-1.36896,8.38249e-17,4034.03,-1828.63)">
        <path d="M1812.72,2333.03C1552.3,2333.03 1340.86,2121.6 1340.86,1861.17C1340.86,1600.75 1552.3,1389.32 1812.72,1389.32C2012.84,1389.32 2184.03,1514.17 2252.58,1690.16" style="fill:rgb(236,154,80);"/>
    </g>
    <g transform="matrix(1.17732e-16,1.92271,-1.36896,8.38249e-17,4034.03,-1828.63)">
        <path d="M2249.08,1686.56C2269.73,1739.59 2284.58,1800.87 2284.58,1861.17C2284.58,2121.6 2073.14,2333.03 1812.72,2333.03" style="fill:rgb(236,154,80);"/>
    </g>
    <g transform="matrix(1.92271,0,0,1.36896,-1018.09,-411)">
        <path d="M1812.72,2333.03C1552.3,2333.03 1340.86,2121.6 1340.86,1861.17C1340.86,1600.75 1552.3,1389.32 1812.72,1389.32C2073.14,1389.32 2284.58,1600.75 2284.58,1861.17C2284.58,2121.6 2073.14,2333.03 1812.72,2333.03" style="fill:rgb(236,154,80);"/>
    </g>
    <g transform="matrix(1,0,0,1,1939.58,25.6807)">
        <path d="M1641.02,4247C2485.86,4253.03 2461.7,3081.66 2416.54,3095.59L2226.62,3447.88L2161.72,3388.94L2082.22,3403.54L2050.89,3539.04L1888.88,3507.55C1556.78,3681.67 1223.13,3573.73 888.377,3262.01L883.815,3129.47L789.602,3045.58C732.666,3045.89 633.426,4239.81 1641.02,4247Z" style="fill:rgb(236,154,80);"/>
    </g>
    <path d="M840.106,3075.17L995.427,3172.06L1163.87,2987.88L1567.6,3019.02L1618.03,2951.24L1908.77,3139.23L2032,3019.7C2088.32,3187.99 2215.03,3239.81 2446.54,3118.27L2240.94,3502.48L2183.4,3457L2098.95,3474.65L2074.62,3586.86L1916.4,3553.96C1436.85,3796.8 926.712,3521.38 899.841,3160.31L840.106,3075.17Z" style="fill:rgb(242,194,130);"/>
    <g transform="matrix(1,0,0,1,1923.59,-28)">
        <path d="M840.106,3075.17L995.427,3172.06L1163.87,2987.88L1567.6,3019.02L1618.03,2951.24L1908.77,3139.23L2032,3019.7C2088.32,3187.99 2215.03,3239.81 2446.54,3118.27L2240.94,3502.48L2183.4,3457L2098.95,3474.65L2074.62,3586.86L1916.4,3553.96C1436.85,3796.8 926.712,3521.38 899.841,3160.31L840.106,3075.17Z" style="fill:rgb(242,194,130);"/>
    </g>
    <g transform="matrix(2.75829,0,0,2.4776,-3049.54,-5127.55)">
        <ellipse cx="1686.74" cy="3472.58" rx="296.035" ry="101.516" style="fill:rgb(252,175,9);"/>
    </g>
    <g transform="matrix(1,0,0,1,15.987,53.6807)">
        <path d="M1641.02,4247C2507.61,4284.61 2473.9,3099.38 2416.54,3095.59L2226.62,3447.88L2161.72,3388.94L2082.22,3403.54L2050.89,3539.04L1888.88,3507.55C1556.78,3681.67 1223.13,3573.73 888.377,3262.01L883.815,3129.47L789.602,3045.58C732.666,3045.89 634.348,4203.32 1641.02,4247Z" style="fill:rgb(236,154,80);"/>
    </g>
    <g transform="matrix(1.07078,0,0,1.20766,-203.148,-770.156)">
        <ellipse cx="1686.74" cy="3472.58" rx="296.035" ry="101.516" style="fill:rgb(255,216,76);"/>
    </g>
    <g transform="matrix(1.17732e-16,1.92271,-1.36896,8.38249e-17,4034.03,-1828.63)">
        <path d="M1812.72,2333.03C1552.3,2333.03 1340.86,2121.6 1340.86,1861.17C1340.86,1600.75 1552.3,1389.32 1812.72,1389.32C2073.14,1389.32 2283.88,1600.75 2284.58,1861.17C2285.11,2061.38 2134.52,2268.54 1929.68,2304.5" style="fill:none;stroke:black;stroke-width:29.96px;"/>
    </g>
    <g transform="matrix(1.92271,0,0,1.36896,-1018.09,-411)">
        <path d="M1812.72,2333.03C1552.3,2333.03 1340.86,2121.6 1340.86,1861.17C1340.86,1600.75 1552.3,1389.32 1812.72,1389.32C2073.14,1389.32 2284.58,1600.75 2284.58,1861.17C2284.58,2121.6 2073.14,2333.03 1812.72,2333.03" style="fill:rgb(236,154,80);"/>
    </g>
    <g transform="matrix(1.92271,0,0,1.36896,-1018.09,-411)">
        <path d="M1812.72,2333.03C1552.3,2333.03 1340.86,2121.6 1340.86,1861.17C1340.86,1600.75 1552.3,1389.32 1812.72,1389.32C2073.14,1389.32 2283.88,1600.75 2284.58,1861.17C2285.11,2061.38 2134.14,2297.06 1929.3,2333.03" style="fill:none;stroke:black;stroke-width:29.96px;"/>
    </g>
    <path d="M789.602,3045.58C789.602,3045.58 563.122,4149.9 1559.59,4301.24" style="fill:none;stroke:black;stroke-width:50px;"/>
    <g transform="matrix(1,0,0,1,1923.59,-28)">
        <path d="M789.602,3045.58C789.602,3045.58 563.122,4149.9 1559.59,4301.24" style="fill:none;stroke:black;stroke-width:50px;"/>
    </g>
    <path d="M1721.14,4301.24C1923.3,4270.21 2086.11,4205.33 2206.42,4089.37C2395.24,3907.36 2479.35,3599.51 2446.54,3099.26L2240.05,3497.59L2176.91,3446.95L2093.53,3464.06L2067.22,3585.83L1906.62,3556.48C1633.94,3699.34 1333.43,3689.85 1023.57,3457.07" style="fill:none;stroke:black;stroke-width:50px;"/>
    <g transform="matrix(1,0,0,1,1923.59,-28)">
        <path d="M1721.14,4301.24C1923.3,4270.21 2086.11,4205.33 2206.42,4089.37C2395.24,3907.36 2479.35,3599.51 2446.54,3099.26L2240.05,3497.59L2176.91,3446.95L2093.53,3464.06L2067.22,3585.83L1906.62,3556.48C1633.94,3699.34 1333.43,3689.85 1023.57,3457.07" style="fill:none;stroke:black;stroke-width:50px;"/>
    </g>
    <path d="M789.602,3045.58L900.723,3166.64L899.77,3297.59L943.356,3364.46" style="fill:none;stroke:black;stroke-width:50px;"/>
    <g transform="matrix(1,0,0,1,1923.59,-28)">
        <path d="M789.602,3045.58L900.723,3166.64L899.77,3297.59L943.356,3364.46" style="fill:none;stroke:black;stroke-width:50px;"/>
    </g>
    <path d="M922.469,3099.26L997.841,3160.31L1154.98,2981.15L1555.77,3004.42L1618.07,2951.24L1911.42,3131.04L2025.25,3012.6L2074.62,3099.26" style="fill:none;stroke:black;stroke-width:50px;"/>
    <g transform="matrix(1,0,0,1,1923.59,-28)">
        <path d="M922.469,3099.26L997.841,3160.31L1154.98,2981.15L1555.77,3004.42L1618.07,2951.24L1911.42,3131.04L2025.25,3012.6L2074.62,3099.26" style="fill:none;stroke:black;stroke-width:50px;"/>
    </g>
    <path d="M2446.54,3099.26C2351.78,3183.61 2251.91,3215.43 2145.14,3176.32" style="fill:none;stroke:black;stroke-width:50px;"/>
    <g transform="matrix(1,0,0,1,1923.59,-28)">
        <path d="M2446.54,3099.26C2351.78,3183.61 2251.91,3215.43 2145.14,3176.32" style="fill:none;stroke:black;stroke-width:50px;"/>
    </g>
</svg>
