<?xml version="1.0" encoding="UTF-8" standalone="no"?>
<!DOCTYPE svg PUBLIC "-//W3C//DTD SVG 1.1//EN" "http://www.w3.org/Graphics/SVG/1.1/DTD/svg11.dtd">
<svg width="100%" height="100%" viewBox="0 0 864 864" version="1.1" xmlns="http://www.w3.org/2000/svg" xmlns:xlink="http://www.w3.org/1999/xlink" xml:space="preserve" xmlns:serif="http://www.serif.com/" style="fill-rule:evenodd;clip-rule:evenodd;stroke-linejoin:round;stroke-miterlimit:1.41421;">
    <g id="Draw-Layer" serif:id="Draw Layer" transform="matrix(2,0,0,2,0,0)">
        <g transform="matrix(1.45088,0,0,1.45088,260.571,344.102)">
            <path d="M0,-29.711C0.003,-29.711 0.029,-29.694 0.031,-29.692C-0.223,-29.421 -0.457,-29.171 -0.679,-28.886C-0.949,-28.51 -1.156,-28.155 -1.334,-27.764C-1.521,-27.292 -1.654,-26.789 -1.744,-26.227C-1.857,-25.289 -1.836,-24.3 -1.677,-23.116C-1.61,-22.664 -1.536,-22.213 -1.461,-21.763L-1.4,-21.386C-1.194,-20.176 -0.96,-18.803 -0.869,-17.44C-0.739,-15.392 -0.943,-13.269 -1.474,-11.128C-2.547,-6.804 -4.994,-3.076 -7.246,0C-6.063,-3.95 -4.837,-8.171 -4.201,-12.624C-3.994,-14.181 -3.824,-15.801 -3.697,-17.44C-3.631,-18.275 -3.592,-19.115 -3.557,-19.955L-3.54,-20.302C-3.507,-20.995 -3.474,-21.689 -3.424,-22.381C-3.201,-25.275 -2.633,-28.164 -0.013,-29.702L0,-29.711Z" style="fill:rgb(255,206,9);fill-rule:nonzero;"/>
        </g>
        <g transform="matrix(1.45088,0,0,1.45088,231.637,265.005)">
            <path d="M0,-27.693C0.196,-27.693 0.403,-27.677 0.619,-27.65C0.567,-27.576 0.515,-27.568 0.462,-27.564C0.133,-27.508 -0.162,-27.431 -0.438,-27.326C-0.597,-27.256 -0.784,-27.155 -0.967,-27.034C-1.146,-26.886 -1.278,-26.755 -1.398,-26.61C-1.529,-26.431 -1.635,-26.25 -1.721,-26.058C-1.836,-25.76 -1.917,-25.446 -1.975,-25.068C-2.096,-24 -1.978,-22.913 -1.846,-21.891C-1.409,-18.665 -1,-14.425 -1.713,-10.252C-2.4,-6.256 -4.556,-2.711 -7.947,0C-7.18,-1.308 -6.575,-2.451 -6.111,-3.507C-5.455,-5.066 -4.997,-6.771 -4.748,-8.575C-4.565,-10.077 -4.515,-11.642 -4.471,-13.023C-4.452,-13.613 -4.432,-14.199 -4.405,-14.789C-4.339,-16.133 -4.225,-17.48 -4.104,-18.856C-4.041,-19.571 -3.979,-20.29 -3.928,-21.004C-3.685,-24.312 -3.029,-27.693 0,-27.693" style="fill:rgb(13,40,242);fill-rule:nonzero;"/>
        </g>
        <g transform="matrix(1.45088,0,0,1.45088,194.505,293.744)">
            <path d="M0,-21.709C0.002,-21.709 0.029,-21.692 0.03,-21.69L-0.076,-21.546L-0.457,-21.075C-0.791,-20.629 -1.043,-20.208 -1.237,-19.784C-1.363,-19.467 -1.454,-19.147 -1.514,-18.807C-1.565,-18.318 -1.552,-17.806 -1.475,-17.239C-1.412,-16.833 -1.338,-16.428 -1.264,-16.022C-1.103,-15.124 -0.949,-14.272 -0.889,-13.418C-0.763,-11.683 -0.949,-9.931 -1.439,-8.212C-2.304,-5.164 -4.201,-2.324 -6.923,0C-6.797,-0.36 -6.648,-0.702 -6.499,-1.044L-6.232,-1.66C-5.172,-4.254 -4.435,-7.163 -3.979,-10.556L-3.963,-10.367L-3.871,-11.314C-3.765,-12.194 -3.658,-13.088 -3.58,-13.981C-3.549,-14.304 -3.528,-14.629 -3.506,-14.955L-3.491,-15.195C-3.452,-15.864 -3.414,-16.468 -3.334,-17.071C-3.049,-19.219 -1.963,-20.732 -0.016,-21.7L0,-21.709Z" style="fill:rgb(240,76,60);fill-rule:nonzero;"/>
        </g>
        <g transform="matrix(1.45088,0,0,1.45088,222.132,231.967)">
            <path d="M0,-25.979L0.008,-25.979C-0.128,-25.755 -0.279,-25.566 -0.429,-25.379L-0.586,-25.182C-1.173,-24.396 -1.655,-23.563 -2.065,-22.629C-2.507,-21.526 -2.818,-20.301 -3.041,-18.78C-3.182,-17.722 -3.277,-16.646 -3.369,-15.605C-3.587,-13.207 -3.808,-10.782 -4.525,-8.451C-5.459,-5.405 -7.249,-2.562 -9.845,0L-9.802,-0.136C-9.368,-1.049 -8.965,-1.894 -8.603,-2.743C-7.644,-5.036 -7.01,-7.54 -6.545,-10.861L-6.451,-11.544C-5.752,-16.836 -4.959,-22.834 -0.009,-25.974C-0.007,-25.976 -0.003,-25.979 0,-25.979" style="fill:rgb(255,206,9);fill-rule:nonzero;"/>
        </g>
        <g transform="matrix(1.45088,0,0,1.45088,204.361,198.345)">
            <path d="M0,-24.484C0.002,-24.484 0.015,-24.478 0.017,-24.477C-0.292,-23.993 -0.556,-23.515 -0.799,-22.95C-1.336,-21.638 -1.584,-20.18 -1.771,-18.801C-1.85,-18.168 -1.92,-17.454 -1.986,-16.743L-1.997,-16.637C-2.13,-15.288 -2.268,-13.894 -2.568,-12.55C-3.037,-10.468 -3.952,-8.469 -5.215,-6.769C-7.877,-3.199 -11.691,-1.344 -15.071,0C-13.293,-1.533 -11.245,-3.329 -9.563,-5.461C-8.595,-6.736 -7.75,-8.206 -6.982,-9.955L-6.9,-10.146C-6.072,-12.117 -4.998,-14.718 -4.037,-17.364L-3.884,-17.79C-3.028,-20.167 -2.058,-22.861 -0.022,-24.474C-0.021,-24.475 -0.001,-24.484 0,-24.484" style="fill:rgb(240,76,60);fill-rule:nonzero;"/>
        </g>
        <g transform="matrix(1.45088,0,0,1.45088,197.362,176.57)">
            <path d="M0,-22.636C0.005,-22.636 0.029,-22.612 0.029,-22.607C-0.109,-22.527 -0.227,-22.48 -0.344,-22.433C-0.914,-22.187 -1.451,-21.872 -1.986,-21.469C-2.621,-20.951 -3.164,-20.392 -3.695,-19.71C-4.588,-18.516 -5.287,-17.174 -5.962,-15.877C-6.296,-15.235 -6.612,-14.629 -6.944,-14.039C-8.191,-11.832 -9.607,-9.837 -11.153,-8.108C-14.141,-4.764 -18.044,-2.036 -22.754,0C-19.642,-2.588 -16.67,-5.716 -13.68,-9.581C-13.035,-10.417 -12.379,-11.281 -11.723,-12.144C-10.532,-13.715 -9.049,-15.67 -7.594,-17.484C-5.715,-19.832 -3.343,-22.28 -0.001,-22.636L0,-22.636Z" style="fill:rgb(255,206,9);fill-rule:nonzero;stroke:rgb(255,206,9);stroke-width:0.69px;"/>
        </g>
        <g transform="matrix(1.45088,0,0,1.45088,164.428,259.489)">
            <path d="M0,-21.787L0.008,-21.787C-0.034,-21.671 -0.091,-21.599 -0.148,-21.524C-0.4,-21.192 -0.595,-20.863 -0.772,-20.483C-0.987,-19.941 -1.132,-19.381 -1.229,-18.717C-1.361,-17.644 -1.35,-16.553 -1.338,-15.496C-1.334,-15.121 -1.33,-14.746 -1.33,-14.371C-1.342,-12.608 -1.629,-10.849 -2.186,-9.141C-3.338,-5.618 -5.521,-2.457 -8.498,0C-8.158,-0.719 -7.688,-1.674 -7.205,-2.801C-6.573,-4.308 -5.996,-5.991 -5.334,-8.257L-4.908,-9.718C-4.53,-10.993 -4.131,-12.354 -3.771,-13.728C-3.667,-14.132 -3.574,-14.554 -3.479,-14.987L-3.42,-15.252C-2.884,-17.703 -2.278,-20.479 -0.009,-21.782C-0.007,-21.784 -0.003,-21.787 0,-21.787" style="fill:rgb(255,206,9);fill-rule:nonzero;"/>
        </g>
        <g transform="matrix(1.45088,0,0,1.45088,123.996,309.364)">
            <path d="M0,-25.057C0.002,-25.057 0.012,-25.052 0.013,-25.051C-0.085,-24.87 -0.195,-24.733 -0.305,-24.595L-0.402,-24.47C-1.119,-23.523 -1.759,-22.418 -2.303,-21.188C-3.175,-19.101 -3.683,-16.858 -4.173,-14.689C-4.495,-13.27 -4.854,-11.684 -5.327,-10.173C-6.75,-5.636 -8.712,-2.309 -11.326,0L-11.135,-0.455C-10.918,-0.92 -10.697,-1.395 -10.478,-1.911C-9.527,-4.231 -8.97,-6.676 -8.432,-9.041C-7.995,-10.945 -7.561,-12.839 -6.947,-14.652C-5.267,-19.638 -3,-23.038 -0.018,-25.047C-0.016,-25.048 -0.002,-25.057 0,-25.057" style="fill:rgb(255,206,9);fill-rule:nonzero;"/>
        </g>
        <g transform="matrix(1.45088,0,0,1.45088,154.855,320.209)">
            <path d="M0,-20.137C0.002,-20.137 0.028,-20.116 0.03,-20.115C-0.209,-19.938 -0.391,-19.815 -0.568,-19.678C-0.814,-19.476 -1.027,-19.265 -1.219,-19.034C-1.419,-18.772 -1.589,-18.484 -1.741,-18.154C-1.907,-17.706 -2.022,-17.248 -2.1,-16.727C-2.185,-16.005 -2.197,-15.266 -2.208,-14.552L-2.214,-14.26C-2.219,-13.979 -2.225,-13.697 -2.236,-13.415C-2.306,-11.76 -2.499,-10.161 -2.811,-8.664C-3.459,-5.572 -4.761,-2.657 -6.679,0C-5.905,-2.74 -5.49,-5.544 -5.088,-8.257C-4.893,-9.598 -4.681,-11.025 -4.42,-12.43L-4.287,-13.164C-3.794,-15.932 -3.182,-19.377 -0.01,-20.129C-0.008,-20.131 -0.003,-20.137 0,-20.137" style="fill:rgb(255,206,9);fill-rule:nonzero;"/>
        </g>
        <g transform="matrix(1.45088,0,0,1.45088,146.071,239.114)">
            <path d="M0,-24.732L0.004,-24.732C0.004,-24.728 -0.05,-24.637 -0.053,-24.635C-0.479,-24.444 -0.819,-24.247 -1.158,-23.996C-1.46,-23.751 -1.737,-23.468 -1.98,-23.157C-2.271,-22.762 -2.499,-22.364 -2.709,-21.886C-3.146,-20.792 -3.333,-19.625 -3.436,-18.841C-3.502,-18.342 -3.557,-17.823 -3.607,-17.307C-3.708,-16.339 -3.813,-15.338 -3.99,-14.353C-4.354,-12.37 -5.073,-10.467 -6.128,-8.698C-7.997,-5.548 -10.767,-3.069 -13.446,-0.671L-14.188,0C-13.591,-1.172 -12.912,-2.308 -12.255,-3.407C-10.318,-6.655 -8.352,-9.955 -6.849,-13.457C-6.432,-14.485 -6.088,-15.563 -5.756,-16.605L-5.709,-16.753C-5.314,-17.993 -4.924,-19.219 -4.427,-20.386C-3.362,-22.888 -1.915,-24.309 -0.002,-24.732L0,-24.732Z" style="fill:rgb(255,206,9);fill-rule:nonzero;"/>
        </g>
        <g transform="matrix(1.45088,0,0,1.45088,250.635,145.003)">
            <path d="M0,-15.075C1.093,-15.075 2.197,-14.987 3.283,-14.813L3.073,-14.75C2.212,-14.75 1.442,-14.702 0.717,-14.602C-0.691,-14.392 -2.09,-14.006 -3.441,-13.454C-6.409,-12.171 -9.109,-10.271 -11.721,-8.434C-13.027,-7.514 -14.472,-6.496 -15.908,-5.599C-21.012,-2.406 -25.327,-0.626 -29.49,0C-26.886,-1.295 -24.606,-2.948 -22.721,-4.397C-22.131,-4.85 -21.549,-5.31 -20.968,-5.771C-17.746,-8.306 -14.438,-10.909 -10.621,-12.629C-7.034,-14.252 -3.461,-15.075 0,-15.075" style="fill:rgb(255,206,9);fill-rule:nonzero;"/>
        </g>
        <g transform="matrix(1.45088,0,0,1.45088,199.443,290.539)">
            <path d="M0,5.352C-0.021,5.394 -0.042,5.437 -0.063,5.479C-0.071,5.491 -0.091,5.483 -0.087,5.467C0.595,3.619 1.221,1.749 1.779,-0.139C1.258,1.652 0.666,3.479 0,5.352" style="fill:rgb(22,22,22);fill-rule:nonzero;"/>
        </g>
        <g transform="matrix(1.45088,0,0,1.45088,142.797,285.058)">
            <path d="M0,6.172C-0.014,6.198 -0.027,6.224 -0.041,6.249C-0.044,6.265 -0.064,6.253 -0.06,6.241C0.61,3.994 1.491,1.822 2.718,-0.093C1.611,1.65 0.709,3.732 0,6.172" style="fill:rgb(22,22,22);fill-rule:nonzero;"/>
        </g>
        <g transform="matrix(1.45088,0,0,1.45088,269.854,115.828)">
            <path d="M0,-5.828C4.417,-5.828 9.142,-4.19 12.963,-1.334C11.795,-2.003 10.736,-2.548 9.715,-2.981C8.024,-3.671 6.271,-4.145 4.506,-4.391C3.74,-4.484 2.962,-4.531 2.191,-4.531C1.441,-4.531 0.684,-4.485 -0.062,-4.394L0.083,-4.457C-2.199,-4.099 -4.368,-3.302 -6.466,-2.532L-7.567,-2.133C-10.015,-1.251 -12.707,-0.664 -15.796,-0.34C-17.985,-0.108 -20.322,0 -23.149,0C-25.146,0 -27.255,-0.056 -28.95,-0.101L-29.595,-0.117C-30.693,-0.143 -31.793,-0.17 -32.891,-0.183C-31.191,-0.425 -29.528,-0.58 -27.685,-0.746L-27.312,-0.781C-24.592,-1.031 -21.778,-1.29 -19.025,-1.652L-18.903,-1.639L-18.904,-1.648C-16.343,-2.02 -13.367,-2.49 -10.457,-3.355C-9.664,-3.593 -8.875,-3.859 -8.087,-4.124C-6.132,-4.777 -4.13,-5.446 -2.064,-5.703C-1.4,-5.786 -0.706,-5.828 0,-5.828" style="fill:rgb(13,40,242);fill-rule:nonzero;"/>
        </g>
        <g transform="matrix(1.45088,0,0,1.45088,229.423,207.224)">
            <path d="M0,-39.01C0.356,-39.01 0.699,-38.922 1.021,-38.747C1.002,-38.746 0.984,-38.745 0.967,-38.745C0.879,-38.745 0.801,-38.76 0.727,-38.774C0.661,-38.786 0.597,-38.799 0.534,-38.807C0.449,-38.815 0.363,-38.819 0.277,-38.819L0.276,-38.819C0.211,-38.819 0.149,-38.818 0.083,-38.811C-0.14,-38.775 -0.333,-38.723 -0.523,-38.647C-0.738,-38.554 -0.97,-38.416 -1.213,-38.239C-1.622,-37.914 -2,-37.519 -2.402,-36.998C-3.619,-35.382 -4.491,-33.483 -5.252,-31.672L-5.216,-31.851C-5.998,-29.891 -6.704,-27.853 -7.326,-26.055C-8.218,-23.495 -9.139,-20.848 -10.338,-18.351C-12.99,-12.819 -16.754,-7.841 -21.528,-3.555C-22.794,-2.419 -24.232,-1.256 -25.924,0C-23.738,-2.266 -21.755,-4.524 -20.043,-6.725C-16.363,-11.499 -13.18,-17.194 -10.025,-24.645L-10.1,-24.38L-9.759,-25.293C-8.505,-28.276 -7.232,-31.303 -5.504,-34.064C-4.653,-35.429 -3.591,-36.976 -2.174,-38.102C-1.654,-38.516 -0.855,-39.01 0,-39.01" style="fill:rgb(255,206,9);fill-rule:nonzero;"/>
        </g>
        <g transform="matrix(1.45088,0,0,1.45088,180.937,267.742)">
            <path d="M0,-39.389C0.002,-39.389 0.016,-39.383 0.017,-39.382C-0.473,-38.593 -0.894,-37.823 -1.221,-37.071C-1.664,-35.999 -1.979,-34.833 -2.158,-33.605C-2.486,-31.131 -2.248,-28.58 -2.018,-26.114C-1.958,-25.501 -1.904,-24.896 -1.853,-24.29C-1.575,-20.888 -1.827,-17.838 -2.623,-14.966C-4.186,-9.292 -7.786,-3.978 -12.759,0L-12.492,-0.352C-12,-0.943 -11.49,-1.555 -10.988,-2.194C-9.238,-4.453 -7.739,-7.021 -6.533,-9.825C-5.25,-12.909 -4.353,-16.275 -3.865,-19.829C-3.64,-21.653 -3.577,-23.626 -3.521,-25.368C-3.365,-30.279 -3.204,-35.35 -0.023,-39.377C-0.022,-39.378 -0.001,-39.389 0,-39.389" style="fill:rgb(13,40,242);fill-rule:nonzero;"/>
        </g>
        <g transform="matrix(1.42407,0.277651,-0.277651,1.42407,141.829,313.901)">
            <path d="M0,-31.752L0.004,-31.752C-0.433,-31.495 -0.907,-31.225 -1.381,-30.871C-1.865,-30.496 -2.325,-30.034 -2.75,-29.498C-3.28,-28.783 -3.716,-28.023 -4.124,-27.102C-4.958,-25.084 -5.368,-23.004 -5.748,-20.873C-6.177,-18.491 -6.62,-16.038 -7.354,-13.728C-9.161,-8.032 -12.231,-3.285 -16.232,0C-16.043,-0.277 -15.838,-0.535 -15.632,-0.794C-15.453,-1.019 -15.274,-1.244 -15.098,-1.471C-13.761,-3.231 -12.612,-5.25 -11.583,-7.645C-10.347,-10.62 -9.508,-13.778 -8.697,-16.832C-8.224,-18.609 -7.757,-20.368 -7.224,-22.077C-6.021,-25.939 -4.112,-30.526 -0.007,-31.748C-0.005,-31.75 -0.002,-31.752 0,-31.752" style="fill:rgb(13,40,242);fill-rule:nonzero;"/>
        </g>
        <g transform="matrix(1.43025,0.24383,-0.24383,1.43025,159.78,256.71)">
            <path d="M0,-35.841L0.004,-35.841C-0.6,-35.452 -1.245,-35.047 -1.841,-34.593C-2.584,-34.008 -3.253,-33.337 -3.828,-32.599C-4.505,-31.706 -5.082,-30.692 -5.592,-29.495C-6.37,-27.585 -6.846,-25.538 -7.307,-23.56L-7.486,-22.79C-8.141,-19.971 -8.995,-17.215 -10.026,-14.601C-12.12,-9.295 -15.043,-4.383 -18.715,0C-16.625,-3.344 -14.723,-6.999 -13.076,-10.874C-12.095,-13.219 -11.16,-15.755 -10.216,-18.627C-9.822,-19.842 -9.458,-21.065 -9.095,-22.287L-9.014,-22.563C-8.654,-23.772 -8.295,-24.98 -7.896,-26.174C-7.074,-28.661 -6.161,-30.521 -5.023,-32.028C-3.747,-33.725 -2.059,-35.006 -0.008,-35.836C-0.006,-35.838 -0.002,-35.841 0,-35.841" style="fill:rgb(13,40,242);fill-rule:nonzero;stroke:rgb(13,40,242);stroke-width:0.69px;"/>
        </g>
        <g transform="matrix(1.45088,0,0,1.45088,201.83,195.948)">
            <path d="M0,-29.174L0.004,-29.174C-0.518,-28.808 -1.041,-28.461 -1.541,-28.082C-2.394,-27.405 -3.17,-26.616 -3.914,-25.67C-5.454,-23.635 -6.526,-21.32 -7.563,-19.082C-7.764,-18.648 -7.959,-18.226 -8.159,-17.804C-9.549,-14.861 -11.341,-12.247 -13.485,-10.036C-17.779,-5.617 -23.37,-2.765 -28.777,-0.007C-28.78,-0.007 -28.819,-0.001 -28.834,-0.001C-28.837,-0.001 -28.839,-0.001 -28.839,-0.002C-28.839,-0.003 -28.842,-0.003 -28.846,-0.003C-28.858,-0.003 -28.88,0 -28.887,0C-28.889,0 -28.889,0 -28.889,-0.001L-27.729,-0.852C-25.636,-2.349 -23.472,-3.896 -21.389,-5.504C-17.694,-8.378 -14.744,-11.256 -12.379,-14.292L-12.417,-14.172C-11.271,-15.74 -10.234,-17.504 -9.231,-19.208C-6.887,-23.194 -4.462,-27.316 -0.008,-29.17C-0.006,-29.172 -0.002,-29.174 0,-29.174" style="fill:rgb(13,40,242);fill-rule:nonzero;stroke:rgb(13,40,242);stroke-width:0.69px;"/>
        </g>
        <g transform="matrix(1.45088,0,0,1.45088,198.206,282.662)">
            <path d="M0,-44.196C0.003,-44.196 0.029,-44.175 0.031,-44.174C-0.449,-43.679 -0.871,-43.209 -1.258,-42.719C-2.082,-41.661 -2.786,-40.444 -3.409,-38.999C-4.552,-36.255 -5.151,-33.302 -5.713,-30.266C-6.33,-26.936 -6.911,-23.938 -7.775,-20.984C-9.666,-14.505 -12.666,-8.721 -16.691,-3.798C-17.731,-2.529 -18.87,-1.287 -20.172,0C-17.223,-4.049 -14.738,-8.377 -12.802,-12.878C-12.8,-12.882 -12.763,-12.934 -12.757,-12.934L-12.757,-12.933C-12.752,-12.933 -12.72,-12.975 -12.717,-12.975L-12.716,-12.975C-10.436,-18.53 -8.841,-24.423 -7.404,-29.982C-6.021,-35.359 -4.311,-40.885 -0.021,-44.186C-0.02,-44.187 -0.001,-44.196 0,-44.196" style="fill:rgb(13,40,242);fill-rule:nonzero;"/>
        </g>
        <g transform="matrix(1.45088,0,0,1.45088,209.127,153.62)">
            <path d="M0,-21.014L0.004,-21.014C-0.921,-20.441 -1.67,-19.946 -2.345,-19.437C-4.374,-17.84 -5.947,-15.847 -7.469,-13.919L-7.543,-13.825C-8.566,-12.535 -9.623,-11.202 -10.797,-10.013C-13.192,-7.586 -16.066,-5.667 -18.846,-3.812L-19.016,-3.698C-20.507,-2.696 -22.049,-1.661 -23.486,-0.562C-23.728,-0.379 -23.966,-0.191 -24.201,0C-22.173,-2.393 -19.849,-4.577 -17.602,-6.688C-15.694,-8.478 -13.583,-10.46 -11.691,-12.507L-11.042,-13.21C-7.956,-16.566 -4.765,-20.036 -0.002,-21.014C-0.001,-21.014 0,-21.014 0,-21.014" style="fill:rgb(240,76,60);fill-rule:nonzero;"/>
        </g>
        <g transform="matrix(1.45088,0,0,1.45088,256.893,326.385)">
            <path d="M0,-46.464C0.002,-46.464 0.014,-46.458 0.016,-46.456L-0.164,-45.976L-0.245,-45.782C-1.065,-43.783 -1.646,-41.529 -2.021,-38.895L-2.063,-38.79L-2.052,-38.789C-2.252,-37.052 -2.378,-35.343 -2.509,-33.449C-2.602,-32.1 -2.704,-30.665 -2.849,-29.258C-3.174,-26.137 -3.885,-22.893 -5.088,-19.049C-7.278,-12.037 -10.209,-5.628 -13.8,0C-13.675,-0.425 -13.504,-0.822 -13.332,-1.224C-10.49,-8.008 -8.839,-15.221 -7.242,-22.196L-7.08,-22.909C-6.378,-25.99 -5.855,-29.099 -5.35,-32.105L-5.088,-33.655C-4.601,-36.524 -3.8,-40.253 -1.915,-43.662C-1.404,-44.59 -0.785,-45.503 -0.023,-46.452L0,-46.464Z" style="fill:rgb(13,40,242);fill-rule:nonzero;"/>
        </g>
        <g transform="matrix(1.45088,0,0,1.45088,170.407,340.432)">
            <path d="M0,-27.814C0.002,-27.814 0.014,-27.808 0.016,-27.806C-0.667,-27.113 -1.206,-26.519 -1.668,-25.919C-2.362,-25 -2.954,-23.969 -3.475,-22.769C-4.161,-21.105 -4.623,-19.333 -5.069,-17.619L-5.311,-16.696C-6.024,-13.976 -6.813,-11.835 -7.796,-9.956C-9.729,-6.23 -12.789,-2.88 -16.889,0C-15.527,-1.393 -14.361,-2.7 -13.336,-4.009C-11.666,-6.182 -10.261,-8.598 -9.162,-11.191L-9.166,-11.076C-8.594,-12.576 -8.087,-14.175 -7.597,-15.723C-6.119,-20.404 -4.602,-25.212 -0.017,-27.805C-0.015,-27.806 -0.001,-27.814 0,-27.814" style="fill:rgb(13,40,242);fill-rule:nonzero;"/>
        </g>
        <g transform="matrix(1.45088,0,0,1.45088,228.612,361.021)">
            <path d="M0,-37.946L0.004,-37.946C-0.196,-37.648 -0.409,-37.381 -0.619,-37.115L-0.852,-36.821C-1.845,-35.508 -2.677,-34.067 -3.327,-32.538C-4.349,-30.014 -4.856,-27.3 -5.252,-24.743C-5.723,-21.728 -6.21,-18.611 -7.358,-15.538C-9.288,-10.387 -12.487,-5.45 -17.426,0C-14.974,-4 -13.048,-7.636 -11.556,-11.132C-10.565,-13.518 -9.732,-15.951 -9.08,-18.361C-8.711,-19.728 -8.409,-21.138 -8.117,-22.503L-8.092,-22.618C-7.85,-23.759 -7.6,-24.939 -7.307,-26.092C-5.966,-31.421 -3.581,-35.297 -0.014,-37.94L0,-37.946Z" style="fill:rgb(13,40,242);fill-rule:nonzero;"/>
        </g>
        <g transform="matrix(1.45088,0,0,1.45088,146.105,275.639)">
            <path d="M0,-15.933C0.002,-15.933 0.02,-15.924 0.021,-15.923C-1.29,-12.735 -2.828,-9.402 -5.156,-6.541C-7.2,-4.037 -10.065,-1.897 -13.917,0C-13.602,-0.284 -13.269,-0.537 -12.936,-0.79L-12.486,-1.134C-10.179,-2.929 -8.127,-4.994 -6.215,-7.445C-5.148,-8.836 -4.156,-10.227 -3.149,-11.648C-2.119,-13.094 -1.092,-14.537 -0.031,-15.917C-0.03,-15.918 -0.001,-15.933 0,-15.933" style="fill:rgb(240,76,60);fill-rule:nonzero;"/>
        </g>
        <g transform="matrix(1.45088,0,0,1.45088,244.725,290.867)">
            <path d="M0,-38.87C0.005,-38.87 0.03,-38.853 0.03,-38.849C-0.046,-38.729 -0.117,-38.64 -0.187,-38.55C-0.501,-38.124 -0.765,-37.661 -0.995,-37.134C-1.226,-36.539 -1.392,-35.884 -1.486,-35.186C-1.623,-34.032 -1.591,-32.766 -1.385,-31.201L-1.451,-31.353C-1.266,-30.303 -1.067,-29.241 -0.875,-28.21L-0.854,-28.097L-0.817,-27.903C-0.61,-26.79 -0.396,-25.64 -0.252,-24.498C0.092,-21.743 0.065,-18.852 -0.33,-15.905C-0.979,-11.092 -2.798,-6.037 -6.058,0C-4.312,-5.633 -3.229,-10.183 -2.666,-14.33C-2.121,-18.533 -2.052,-23.022 -2.455,-28.055C-2.714,-31.274 -3.104,-36.118 -0.022,-38.859L0,-38.87Z" style="fill:rgb(255,206,9);fill-rule:nonzero;"/>
        </g>
        <g transform="matrix(1.45088,0,0,1.45088,190.634,350.336)">
            <path d="M0,-27.803L0.008,-27.803L-0.271,-27.52C-1.164,-26.822 -1.998,-25.974 -2.75,-24.998C-3.75,-23.657 -4.641,-22.062 -5.475,-20.121L-5.467,-20.244C-6.042,-18.774 -6.584,-17.227 -7.109,-15.732L-7.151,-15.614C-7.888,-13.5 -8.649,-11.316 -9.667,-9.238C-11.499,-5.495 -13.965,-2.388 -16.998,0C-16.454,-0.65 -15.804,-1.398 -15.156,-2.229C-13.626,-4.213 -12.283,-6.579 -11.052,-9.461C-10.505,-10.77 -10.014,-12.127 -9.495,-13.564C-7.454,-19.223 -5.378,-24.985 -0.008,-27.798C-0.007,-27.8 -0.002,-27.803 0,-27.803" style="fill:rgb(240,76,60);fill-rule:nonzero;"/>
        </g>
        <g transform="matrix(1.45088,0,0,1.45088,214.953,349.369)">
            <path d="M0,-30.883C0.003,-30.883 0.029,-30.862 0.031,-30.861C-0.344,-30.654 -0.647,-30.47 -0.928,-30.264C-1.253,-30.005 -1.56,-29.692 -1.84,-29.332C-2.162,-28.886 -2.443,-28.39 -2.702,-27.815C-3.485,-25.9 -3.779,-23.882 -4.064,-21.93C-4.493,-19.006 -5.017,-16.657 -5.713,-14.538C-7.28,-9.754 -9.95,-4.998 -13.875,0C-12.379,-2.83 -11.073,-5.537 -10.009,-8.057C-8.323,-12.116 -6.913,-16.614 -5.58,-22.195C-4.892,-25.105 -3.74,-29.974 -0.01,-30.875L0,-30.883Z" style="fill:rgb(240,76,60);fill-rule:nonzero;"/>
        </g>
        <g transform="matrix(1.45088,0,0,1.45088,210.92,309.394)">
            <path d="M0,-38.116L0.004,-38.116C-0.126,-37.98 -0.265,-37.879 -0.401,-37.779L-0.587,-37.641C-0.979,-37.337 -1.333,-36.982 -1.668,-36.556C-1.971,-36.149 -2.231,-35.7 -2.463,-35.184C-2.806,-34.375 -3.048,-33.455 -3.205,-32.37C-3.467,-30.322 -3.373,-28.294 -3.232,-26.044C-3.049,-22.927 -3.152,-20.137 -3.545,-17.514C-4.541,-10.967 -7.232,-4.986 -9.733,0C-7.664,-5.803 -6.298,-11.157 -5.576,-16.377L-5.549,-16.491C-5.236,-19.025 -5.021,-21.546 -4.9,-23.977C-4.87,-24.544 -4.847,-25.109 -4.824,-25.672L-4.809,-25.791L-4.819,-25.791C-4.773,-26.961 -4.726,-28.17 -4.611,-29.353C-4.314,-32.379 -3.514,-36.577 -0.008,-38.111C-0.006,-38.113 -0.002,-38.116 0,-38.116" style="fill:rgb(255,206,9);fill-rule:nonzero;"/>
        </g>
        <g transform="matrix(1.45088,0,0,1.45088,236.479,319.945)">
            <path d="M0,-14.544C0.002,-14.544 0.014,-14.537 0.016,-14.536C-0.036,-14.361 -0.098,-14.219 -0.16,-14.077L-0.209,-13.964C-0.679,-12.816 -0.994,-11.539 -1.229,-9.821C-1.361,-8.795 -1.462,-7.768 -1.56,-6.74C-1.779,-4.474 -1.999,-2.192 -2.564,0C-2.581,-1.103 -2.619,-2.252 -2.656,-3.371L-2.662,-3.565C-2.795,-7.467 -2.933,-11.502 -0.023,-14.533C-0.021,-14.534 -0.001,-14.544 0,-14.544" style="fill:rgb(240,76,60);fill-rule:nonzero;stroke:rgb(240,76,60);stroke-width:0.34px;"/>
        </g>
        <g transform="matrix(1.45088,0,0,1.45088,246.578,350.477)">
            <path d="M0,-15.268L0.008,-15.268L-0.265,-14.917C-0.431,-14.721 -0.597,-14.524 -0.762,-14.315C-1.171,-13.755 -1.512,-13.158 -1.815,-12.473C-2.15,-11.652 -2.429,-10.801 -2.686,-10.001C-3.137,-8.622 -3.589,-7.244 -4.319,-5.972C-5.694,-3.576 -7.674,-1.609 -9.431,0L-9.075,-0.557C-7.047,-3.183 -5.529,-5.692 -4.436,-8.227C-4.273,-8.619 -4.118,-9.014 -3.962,-9.411C-3.057,-11.718 -2.205,-13.891 -0.009,-15.263C-0.007,-15.264 -0.002,-15.268 0,-15.268" style="fill:rgb(240,76,60);fill-rule:nonzero;"/>
        </g>
        <g transform="matrix(1.45088,0,0,1.45088,157.53,214.196)">
            <path d="M0,-28.963L0.004,-28.963C-0.375,-28.736 -0.83,-28.475 -1.299,-28.125C-1.937,-27.62 -2.525,-27.013 -3.148,-26.216C-4.597,-24.312 -5.669,-22.123 -6.707,-20.006C-7.779,-17.798 -8.965,-15.457 -10.414,-13.198C-13.431,-8.48 -17.403,-4.039 -22.22,0C-20.071,-2.21 -18.104,-4.447 -16.387,-6.666C-13.091,-10.956 -10.464,-15.632 -8.329,-19.641C-7.306,-21.567 -6.161,-23.599 -4.719,-25.424C-3.185,-27.373 -1.644,-28.529 -0.006,-28.959C-0.004,-28.961 -0.002,-28.963 0,-28.963" style="fill:rgb(13,40,242);fill-rule:nonzero;"/>
        </g>
        <g transform="matrix(1.45088,0,0,1.45088,111.173,313.885)">
            <path d="M0,-26.36C0.067,-26.36 0.133,-26.36 0.2,-26.356C0.157,-26.286 0.107,-26.279 0.06,-26.271C-0.366,-26.211 -0.771,-26.102 -1.187,-25.938C-1.582,-25.767 -1.977,-25.534 -2.361,-25.245C-2.813,-24.888 -3.262,-24.434 -3.695,-23.894C-4.695,-22.573 -5.386,-21.091 -5.877,-19.948C-6.44,-18.596 -6.963,-17.233 -7.487,-15.866L-7.577,-15.631C-8.278,-13.808 -9.003,-11.924 -9.827,-10.116C-11.644,-6.106 -13.766,-2.797 -16.313,0C-14.895,-2.271 -13.613,-4.751 -12.412,-7.592C-11.834,-8.979 -11.284,-10.404 -10.748,-11.79L-10.702,-11.91C-9.658,-14.608 -8.579,-17.398 -7.247,-20.03C-5.092,-24.29 -2.722,-26.36 0,-26.36" style="fill:rgb(240,76,60);fill-rule:nonzero;"/>
        </g>
        <g transform="matrix(1.45088,0,0,1.45088,119.037,285.04)">
            <path d="M0,-39.588C0.003,-39.588 0.029,-39.571 0.031,-39.569C-0.168,-39.291 -0.363,-39.045 -0.559,-38.798C-2.518,-36.249 -4.234,-33.207 -5.807,-29.5L-5.771,-29.675C-6.781,-27.175 -7.699,-24.592 -8.586,-22.095L-8.643,-21.934C-9.563,-19.343 -10.513,-16.663 -11.612,-14.07C-14.152,-8.051 -17.181,-3.449 -20.872,0C-20.676,-0.318 -20.449,-0.607 -20.222,-0.895L-19.945,-1.248C-17.987,-3.784 -16.282,-6.794 -14.732,-10.449C-13.703,-12.896 -12.795,-15.509 -11.917,-18.036L-11.88,-18.14C-11.046,-20.548 -10.1,-23.276 -9.025,-25.848C-6.488,-31.912 -3.626,-36.275 -0.019,-39.577L0,-39.588Z" style="fill:rgb(13,40,242);fill-rule:nonzero;"/>
        </g>
    </g>
    <g transform="matrix(1.45088,0,0,1.45088,-108.989,-232.714)">
        <g id="fillers">
            <path d="M531.634,575.303C544.109,573.947 557.803,553.653 559.748,539.182C562.01,522.355 552.269,501.395 546.86,480.13C539.5,451.191 534.981,423.169 531.634,417.966L526.837,395.652C506.046,395.708 488.755,390.718 472.399,380.56C459.193,372.359 485.454,334.841 485.454,334.841C443.584,326.671 412.237,340.854 394.405,383.749C396.149,422.271 409.364,456.345 432,486.767C444.94,502.561 458.142,507.671 471.587,502.937C482.667,519.84 476.439,581.303 531.634,575.303Z" style="fill:rgb(255,206,9);"/>
        </g>
    </g>
    <g id="black-outline" serif:id="black outline">
        <g transform="matrix(1.45088,0,0,1.45088,-108.989,-232.714)">
            <path d="M423.291,421.65C423.291,421.65 461.698,428.222 471.192,494.049C471.192,494.049 484.29,575.974 537.309,563.269C537.309,563.269 574.833,546.864 552.833,499.024C552.833,499.024 545.047,480.723 542.942,471.064C539.409,454.853 531.634,401.754 531.634,401.754" style="fill:none;stroke:rgb(240,76,60);stroke-width:8.27px;stroke-linecap:round;stroke-miterlimit:1.5;"/>
        </g>
        <g transform="matrix(1.45088,0,0,1.45088,-108.989,-232.714)">
            <path d="M531.634,401.754C531.634,401.754 556.386,407.485 564.966,444.81C564.966,444.81 565.38,462.161 572.544,472.14C572.544,472.14 593.891,511.03 575.557,516.098C562.387,519.739 555.17,504.533 555.17,504.533" style="fill:none;stroke:rgb(240,76,60);stroke-width:8.27px;stroke-linecap:round;stroke-miterlimit:1.5;"/>
        </g>
        <g transform="matrix(0.800492,0,0,0.800492,189.091,11.4707)">
            <circle cx="448.589" cy="346.321" r="15.78" style="fill:rgb(240,76,60);"/>
        </g>
        <g transform="matrix(1.45088,0,0,1.45088,-108.989,-232.714)">
            <path d="M467.275,376.048C478.309,311.176 545.83,315.012 579.903,359.376C580.269,362.969 542.35,342.671 498.565,356.588" style="fill:none;stroke:rgb(240,76,60);stroke-width:8.27px;stroke-linecap:round;stroke-miterlimit:1.5;"/>
        </g>
        <g transform="matrix(1.40144,-0.375516,-0.375516,-1.40144,40.1263,984.196)">
            <path d="M471.866,351.483C484.452,324.668 546.582,292.344 579.756,324.623C568.182,320.059 514.175,349.019 515.301,361.598" style="fill:none;stroke:rgb(240,76,60);stroke-width:8.27px;stroke-linecap:round;stroke-miterlimit:1.5;"/>
        </g>
        <g transform="matrix(1.45088,0,0,1.45088,-108.989,-232.714)">
            <path d="M432,488.45C451.203,552.314 453.096,602.96 444.775,645.806" style="fill:none;stroke:rgb(240,76,60);stroke-width:4.82px;stroke-linecap:round;stroke-miterlimit:1.5;"/>
        </g>
        <g transform="matrix(3.18272,0,0,3.18272,-839.577,-747.009)">
            <path d="M387.041,307.233C369.723,281.142 376.018,266.838 398.96,279.099C394.208,250.209 418.551,243.775 426.789,271.298C453.431,251.802 464.894,275.727 446.246,299.404C446.246,299.404 428.581,295.14 419.773,296.305C409.905,297.61 388.536,308.663 388.536,308.663" style="fill:rgb(255,206,9);"/>
        </g>
        <g transform="matrix(1.45088,0,0,1.45088,-108.989,-232.714)">
            <path d="M384.334,301.522C372.238,275.509 376.018,266.838 398.96,279.099C396.045,249.967 415.081,243.535 426.789,271.298C448.845,251.526 462.8,269.895 446.935,295.75" style="fill:white;stroke:rgb(240,76,60);stroke-width:8.27px;stroke-linecap:round;stroke-miterlimit:1.5;"/>
        </g>
        <g transform="matrix(1.45088,0,0,1.45088,-108.989,-232.714)">
            <path d="M162.747,593.87C267.902,345.416 360.064,312.746 389.023,303.027C430.358,289.155 488.513,295.074 506.783,327.662C510.171,333.704 467.929,320.17 437.803,326.607C408.507,332.866 393.616,358.766 393.96,395.864C394.298,432.423 417.534,471.054 432,487.424C454.688,513.098 472.377,501.895 472.377,501.895" style="fill:none;stroke:rgb(240,76,60);stroke-width:8.27px;stroke-linecap:round;stroke-miterlimit:1.5;"/>
        </g>
        <g transform="matrix(3.18272,0,0,3.18272,-828.864,-748.16)">
            <path d="M387.041,307.233C369.723,281.142 376.018,266.838 398.96,279.099C394.208,250.209 418.551,243.775 426.789,271.298C453.431,251.802 464.894,275.727 446.246,299.404" style="fill:none;stroke:rgb(240,76,60);stroke-width:3.77px;stroke-linecap:round;stroke-miterlimit:1.5;"/>
        </g>
    </g>
</svg>
