<!--?xml version="1.0" encoding="utf-8"?-->
<!-- Generator: Adobe Illustrator 22.0.1, SVG Export Plug-In . SVG Version: 6.00 Build 0)  -->
<svg version="1.1" id="svg2" inkscape:version="0.43" sodipodi:docbase="Y:\wiki\roadsigns" sodipodi:docname="snowflake.svg" sodipodi:version="0.32" xmlns:cc="http://web.resource.org/cc/" xmlns:dc="http://purl.org/dc/elements/1.1/" xmlns:inkscape="http://www.inkscape.org/namespaces/inkscape" xmlns:rdf="http://www.w3.org/1999/02/22-rdf-syntax-ns#" xmlns:sodipodi="http://inkscape.sourceforge.net/DTD/sodipodi-0.dtd" xmlns:svg="http://www.w3.org/2000/svg" xmlns="http://www.w3.org/2000/svg" xmlns:xlink="http://www.w3.org/1999/xlink" x="0px" y="0px" viewBox="0 0 600 600" style="" xml:space="preserve">
<style type="text/css">
	.st0{fill:none;stroke:#1E1916;stroke-width:2;stroke-miterlimit:10;}
</style>
<sodipodi:namedview bordercolor="#666666" borderopacity="1.0" id="base" inkscape:current-layer="svg2" inkscape:cx="250" inkscape:cy="300" inkscape:pageopacity="0.0" inkscape:pageshadow="2" inkscape:window-height="792" inkscape:window-width="1152" inkscape:window-x="-4" inkscape:window-y="-4" inkscape:zoom="0.62333333" pagecolor="#ffffff">
	</sodipodi:namedview>
<path class="st0 JiAclOou_0" d="M290.5,30.4l-47.8,27.2v30.1l38.4,2.5l-1.7,25.9l-31,0.8l-23,17.1l23,17.5L277,152v13.4l-20.5,0.8l0.8,23
	l19.2,0.8l0.4,15.8l-42.6-20l-4.2,45.5l-13.4-6.3l8.8-17.5l-18.8-11.7l-11.7,18.4l-12.5-7.9l13.8-24.6l-1.3-29.7l-28.4,11.3
	l-14.6,25.5l-24.2-11.3l16.7-31.8l-26.8-15.9l-56,32.2L61,227.7l26.3,14.6l20.5-30.5l23.4,12.9l-16.3,27.2l2.9,28l28.4-10.9
	l14.2-26.7l14.2,7.5L163.3,269l20.9,12.1l10-19.2l15.1,8.8L169.2,300l40.1,29.3l-15.1,8.8l-10-19.2l-20.9,12.1l11.3,19.6l-14.2,7.1
	l-14.2-26.7L117.8,320l-2.9,28l16.3,27.2l-23.4,13l-20.5-30.5L61,372.7l0.8,65.2l56,32.2l26.8-15.5l-16.7-32.2l24.2-11.3l14.6,25.5
	l28.4,11.3l1.3-29.6l-13.8-24.7l12.5-8l11.7,18.4l18.8-11.7l-8.8-17.5l13.4-6.3l4.2,45.5L277,394l-0.4,16.3l-19.2,0.4l-0.8,23.4
	l20.5,0.4v13.4l-28.4,0.4l-23,17.6l23,17.1l31,0.9l1.7,25.9l-38.4,2.9v29.6L300,575l57.2-32.7v-29.6l-38.4-2.9l1.7-25.9l31-0.9
	l23-17.1l-23-17.6l-28.9-0.4v-13.4l20.5-0.4l-0.4-23.4l-19.2-0.4l-0.9-16.3l42.7,20.1l4.6-45.5l13.4,6.3l-8.8,17.5l18.8,11.7
	l11.3-18.4l13,8l-13.8,24.7l0.8,29.6l28.8-11.3l14.6-25.5l24.2,11.3l-16.7,32.2l26.8,15.5l56-32.2l0.8-65.2l-26.3-15.1l-20.5,30.5
	l-23.4-13l15.9-27.2l-2.5-28l-28.4,10.9l-14.2,26.7l-14.6-7.1l11.7-19.6l-20.9-12.1l-10,19.2l-15.1-8.8l40.1-29.3l-40.1-29.3
	l15.1-8.8l10,19.2l20.9-12.1l-11.7-19.2l14.6-7.5l14.2,26.7l28.4,10.9l2.5-28l-15.9-27.2l23.4-12.9l20.5,30.5l26.3-14.6l-0.8-65.6
	l-56-32.2l-26.8,15.9l16.7,31.8l-24.2,11.3l-14.6-25.5L404.5,152l-0.8,29.7l13.8,24.6l-13,7.9l-11.3-18.4l-18.8,11.7l8.8,17.5
	l-13.4,6.3l-4.6-45.5l-42.7,20l0.9-15.8l19.2-0.8l0.4-23l-20.5-0.8V152l28.9-0.4l23-17.5l-23-17.1l-31-0.8l-1.7-25.9l38.4-2.5V57.6
	l-48.9-27.8"></path>
<style>.JiAclOou_0{stroke-dasharray:5035 5037;stroke-dashoffset:5036;animation:JiAclOou_draw 1900ms linear 0ms forwards;}@keyframes JiAclOou_draw{100%{stroke-dashoffset:0;}}@keyframes JiAclOou_fade{0%{stroke-opacity:1;}93.44262295081967%{stroke-opacity:1;}100%{stroke-opacity:0;}}</style></svg>
