<?xml version="1.0" encoding="UTF-8" standalone="no"?>
<!DOCTYPE svg PUBLIC "-//W3C//DTD SVG 1.1//EN" "http://www.w3.org/Graphics/SVG/1.1/DTD/svg11.dtd">
<svg width="100%" height="100%" viewBox="0 0 4760 4835" version="1.1" xmlns="http://www.w3.org/2000/svg" xmlns:xlink="http://www.w3.org/1999/xlink" xml:space="preserve" xmlns:serif="http://www.serif.com/" style="fill-rule:evenodd;clip-rule:evenodd;stroke-linecap:round;stroke-linejoin:round;stroke-miterlimit:1.5;">
    <g transform="matrix(1.17732e-16,1.92271,-1.36896,8.38249e-17,4034.03,-1828.63)">
        <path d="M1812.72,2333.03C1552.3,2333.03 1340.86,2121.6 1340.86,1861.17C1340.86,1600.75 1552.3,1389.32 1812.72,1389.32C2073.14,1389.32 2284.58,1600.75 2284.58,1861.17C2284.58,2121.6 2073.14,2333.03 1812.72,2333.03" style="fill:rgb(236,154,80);"/>
    </g>
    <g transform="matrix(1.17732e-16,1.92271,-1.36896,8.38249e-17,4034.03,-1828.63)">
        <path d="M1812.72,2333.03C1552.3,2333.03 1340.86,2121.6 1340.86,1861.17C1340.86,1600.75 1552.3,1389.32 1812.72,1389.32C2073.14,1389.32 2283.88,1600.75 2284.58,1861.17C2285.11,2061.38 2134.52,2268.54 1929.68,2304.5" style="fill:none;stroke:black;stroke-width:29.96px;"/>
    </g>
    <g transform="matrix(1.92271,0,0,1.36896,-1018.09,-411)">
        <path d="M1812.72,2333.03C1552.3,2333.03 1340.86,2121.6 1340.86,1861.17C1340.86,1600.75 1552.3,1389.32 1812.72,1389.32C2073.14,1389.32 2284.58,1600.75 2284.58,1861.17C2284.58,2121.6 2073.14,2333.03 1812.72,2333.03" style="fill:rgb(236,154,80);"/>
    </g>
    <g transform="matrix(1.92271,0,0,1.36896,-1018.09,-411)">
        <path d="M1812.72,2333.03C1552.3,2333.03 1340.86,2121.6 1340.86,1861.17C1340.86,1600.75 1552.3,1389.32 1812.72,1389.32C2073.14,1389.32 2283.88,1600.75 2284.58,1861.17C2285.11,2061.38 2134.52,2268.54 1929.68,2304.5" style="fill:none;stroke:black;stroke-width:29.96px;"/>
    </g>
    <path d="M840.106,3075.17L995.427,3172.06L1163.87,2987.88L1567.6,3019.02L1618.03,2951.24L1908.77,3139.23L2032,3019.7C2088.32,3187.99 2215.03,3239.81 2446.54,3118.27L2240.94,3502.48L2183.4,3457L2098.95,3474.65L2074.62,3586.86L1916.4,3553.96C1436.85,3796.8 926.712,3521.38 899.841,3160.31L840.106,3075.17Z" style="fill:rgb(242,194,130);"/>
    <g transform="matrix(1,0,0,1,1923.59,-28)">
        <path d="M840.106,3075.17L995.427,3172.06L1163.87,2987.88L1567.6,3019.02L1618.03,2951.24L1908.77,3139.23L2032,3019.7C2088.32,3187.99 2215.03,3239.81 2446.54,3118.27L2240.94,3502.48L2183.4,3457L2098.95,3474.65L2074.62,3586.86L1916.4,3553.96C1436.85,3796.8 926.712,3521.38 899.841,3160.31L840.106,3075.17Z" style="fill:rgb(242,194,130);"/>
    </g>
    <g transform="matrix(1,0,0,1,15.987,53.6807)">
        <path d="M1641.02,4247C2485.86,4253.03 2461.7,3081.66 2416.54,3095.59L2226.62,3447.88L2161.72,3388.94L2082.22,3403.54L2050.89,3539.04L1888.88,3507.55C1556.78,3681.67 1223.13,3573.73 888.377,3262.01L883.815,3129.47L789.602,3045.58C732.666,3045.89 633.426,4239.81 1641.02,4247Z" style="fill:rgb(236,154,80);"/>
    </g>
    <g transform="matrix(1,0,0,1,1939.58,25.6807)">
        <path d="M1641.02,4247C2485.86,4253.03 2461.7,3081.66 2416.54,3095.59L2226.62,3447.88L2161.72,3388.94L2082.22,3403.54L2050.89,3539.04L1888.88,3507.55C1556.78,3681.67 1223.13,3573.73 888.377,3262.01L883.815,3129.47L789.602,3045.58C732.666,3045.89 633.426,4239.81 1641.02,4247Z" style="fill:rgb(236,154,80);"/>
    </g>
    <path d="M789.602,3045.58C789.602,3045.58 563.122,4149.9 1559.59,4301.24" style="fill:none;stroke:black;stroke-width:50px;"/>
    <g transform="matrix(1,0,0,1,1923.59,-28)">
        <path d="M789.602,3045.58C789.602,3045.58 563.122,4149.9 1559.59,4301.24" style="fill:none;stroke:black;stroke-width:50px;"/>
    </g>
    <path d="M1721.14,4301.24C1923.3,4270.21 2086.11,4205.33 2206.42,4089.37C2395.24,3907.36 2479.35,3599.51 2446.54,3099.26L2240.05,3497.59L2176.91,3446.95L2093.53,3464.06L2067.22,3585.83L1906.62,3556.48C1633.94,3699.34 1333.43,3689.85 1023.57,3457.07" style="fill:none;stroke:black;stroke-width:50px;"/>
    <g transform="matrix(1,0,0,1,1923.59,-28)">
        <path d="M1721.14,4301.24C1923.3,4270.21 2086.11,4205.33 2206.42,4089.37C2395.24,3907.36 2479.35,3599.51 2446.54,3099.26L2240.05,3497.59L2176.91,3446.95L2093.53,3464.06L2067.22,3585.83L1906.62,3556.48C1633.94,3699.34 1333.43,3689.85 1023.57,3457.07" style="fill:none;stroke:black;stroke-width:50px;"/>
    </g>
    <path d="M789.602,3045.58L900.723,3166.64L899.77,3297.59L943.356,3364.46" style="fill:none;stroke:black;stroke-width:50px;"/>
    <g transform="matrix(1,0,0,1,1923.59,-28)">
        <path d="M789.602,3045.58L900.723,3166.64L899.77,3297.59L943.356,3364.46" style="fill:none;stroke:black;stroke-width:50px;"/>
    </g>
    <path d="M922.469,3099.26L997.841,3160.31L1154.98,2981.15L1555.77,3004.42L1618.07,2951.24L1911.42,3131.04L2025.25,3012.6L2074.62,3099.26" style="fill:none;stroke:black;stroke-width:50px;"/>
    <g transform="matrix(1,0,0,1,1923.59,-28)">
        <path d="M922.469,3099.26L997.841,3160.31L1154.98,2981.15L1555.77,3004.42L1618.07,2951.24L1911.42,3131.04L2025.25,3012.6L2074.62,3099.26" style="fill:none;stroke:black;stroke-width:50px;"/>
    </g>
    <path d="M2446.54,3099.26C2351.78,3183.61 2251.91,3215.43 2145.14,3176.32" style="fill:none;stroke:black;stroke-width:50px;"/>
    <g transform="matrix(1,0,0,1,1923.59,-28)">
        <path d="M2446.54,3099.26C2351.78,3183.61 2251.91,3215.43 2145.14,3176.32" style="fill:none;stroke:black;stroke-width:50px;"/>
    </g>
    <g transform="matrix(1.17732e-16,1.92271,-1.36896,8.38249e-17,4034.03,-1828.63)">
        <path d="M1812.72,2333.03C1552.3,2333.03 1340.86,2121.6 1340.86,1861.17C1340.86,1600.75 1552.3,1389.32 1812.72,1389.32C2012.84,1389.32 2184.03,1514.17 2252.58,1690.16" style="fill:rgb(247,242,226);"/>
    </g>
    <g transform="matrix(1.17732e-16,1.92271,-1.36896,8.38249e-17,4034.03,-1828.63)">
        <path d="M2249.08,1686.56C2269.73,1739.59 2284.58,1800.87 2284.58,1861.17C2284.58,2121.6 2073.14,2333.03 1812.72,2333.03" style="fill:rgb(247,242,226);"/>
    </g>
    <g transform="matrix(1.92271,0,0,1.36896,-1018.09,-411)">
        <path d="M1812.72,2333.03C1552.3,2333.03 1340.86,2121.6 1340.86,1861.17C1340.86,1600.75 1552.3,1389.32 1812.72,1389.32C2073.14,1389.32 2284.58,1600.75 2284.58,1861.17C2284.58,2121.6 2073.14,2333.03 1812.72,2333.03" style="fill:rgb(236,154,80);"/>
    </g>
    <g transform="matrix(1,0,0,1,1939.58,25.6807)">
        <path d="M1641.02,4247C2485.86,4253.03 2461.7,3081.66 2416.54,3095.59L2226.62,3447.88L2161.72,3388.94L2082.22,3403.54L2050.89,3539.04L1888.88,3507.55C1556.78,3681.67 1223.13,3573.73 888.377,3262.01L883.815,3129.47L789.602,3045.58C732.666,3045.89 633.426,4239.81 1641.02,4247Z" style="fill:rgb(247,242,226);"/>
    </g>
    <path d="M840.106,3075.17L995.427,3172.06L1163.87,2987.88L1567.6,3019.02L1618.03,2951.24L1908.77,3139.23L2032,3019.7C2088.32,3187.99 2215.03,3239.81 2446.54,3118.27L2240.94,3502.48L2183.4,3457L2098.95,3474.65L2074.62,3586.86L1916.4,3553.96C1436.85,3796.8 926.712,3521.38 899.841,3160.31L840.106,3075.17Z" style="fill:rgb(241,232,204);"/>
    <g transform="matrix(1,0,0,1,1923.59,-28)">
        <path d="M840.106,3075.17L995.427,3172.06L1163.87,2987.88L1567.6,3019.02L1618.03,2951.24L1908.77,3139.23L2032,3019.7C2088.32,3187.99 2215.03,3239.81 2446.54,3118.27L2240.94,3502.48L2183.4,3457L2098.95,3474.65L2074.62,3586.86L1916.4,3553.96C1436.85,3796.8 926.712,3521.38 899.841,3160.31L840.106,3075.17Z" style="fill:rgb(241,232,204);"/>
    </g>
    <g transform="matrix(2.75829,0,0,2.4776,-3049.54,-5127.55)">
        <ellipse cx="1686.74" cy="3472.58" rx="296.035" ry="101.516" style="fill:rgb(252,175,9);"/>
    </g>
    <g transform="matrix(1,0,0,1,15.987,53.6807)">
        <path d="M1641.02,4247C2507.61,4284.61 2473.9,3099.38 2416.54,3095.59L2226.62,3447.88L2161.72,3388.94L2082.22,3403.54L2050.89,3539.04L1888.88,3507.55C1556.78,3681.67 1223.13,3573.73 888.377,3262.01L883.815,3129.47L789.602,3045.58C732.666,3045.89 634.348,4203.32 1641.02,4247Z" style="fill:rgb(247,242,226);"/>
    </g>
    <g transform="matrix(1.07078,0,0,1.20766,-203.148,-770.156)">
        <ellipse cx="1686.74" cy="3472.58" rx="296.035" ry="101.516" style="fill:rgb(255,216,76);"/>
    </g>
    <g transform="matrix(1.17732e-16,1.92271,-1.36896,8.38249e-17,4034.03,-1828.63)">
        <path d="M1812.72,2333.03C1552.3,2333.03 1340.86,2121.6 1340.86,1861.17C1340.86,1600.75 1552.3,1389.32 1812.72,1389.32C2073.14,1389.32 2283.88,1600.75 2284.58,1861.17C2285.11,2061.38 2134.52,2268.54 1929.68,2304.5" style="fill:none;stroke:black;stroke-width:29.96px;"/>
    </g>
    <g transform="matrix(1.92271,0,0,1.36896,-1018.09,-411)">
        <path d="M1812.72,2333.03C1552.3,2333.03 1340.86,2121.6 1340.86,1861.17C1340.86,1600.75 1552.3,1389.32 1812.72,1389.32C2073.14,1389.32 2284.58,1600.75 2284.58,1861.17C2284.58,2121.6 2073.14,2333.03 1812.72,2333.03" style="fill:rgb(247,242,226);"/>
    </g>
    <g transform="matrix(1.92271,0,0,1.36896,-1018.09,-411)">
        <path d="M1812.72,2333.03C1552.3,2333.03 1340.86,2121.6 1340.86,1861.17C1340.86,1600.75 1552.3,1389.32 1812.72,1389.32C2073.14,1389.32 2283.88,1600.75 2284.58,1861.17C2285.11,2061.38 2134.14,2297.06 1929.3,2333.03" style="fill:none;stroke:black;stroke-width:29.96px;"/>
    </g>
    <path d="M789.602,3045.58C789.602,3045.58 563.122,4149.9 1559.59,4301.24" style="fill:none;stroke:black;stroke-width:50px;"/>
    <g transform="matrix(1,0,0,1,1923.59,-28)">
        <path d="M789.602,3045.58C789.602,3045.58 563.122,4149.9 1559.59,4301.24" style="fill:none;stroke:black;stroke-width:50px;"/>
    </g>
    <path d="M1721.14,4301.24C1923.3,4270.21 2086.11,4205.33 2206.42,4089.37C2395.24,3907.36 2479.35,3599.51 2446.54,3099.26L2240.05,3497.59L2176.91,3446.95L2093.53,3464.06L2067.22,3585.83L1906.62,3556.48C1633.94,3699.34 1333.43,3689.85 1023.57,3457.07" style="fill:none;stroke:black;stroke-width:50px;"/>
    <g transform="matrix(1,0,0,1,1923.59,-28)">
        <path d="M1721.14,4301.24C1923.3,4270.21 2086.11,4205.33 2206.42,4089.37C2395.24,3907.36 2479.35,3599.51 2446.54,3099.26L2240.05,3497.59L2176.91,3446.95L2093.53,3464.06L2067.22,3585.83L1906.62,3556.48C1633.94,3699.34 1333.43,3689.85 1023.57,3457.07" style="fill:none;stroke:black;stroke-width:50px;"/>
    </g>
    <path d="M789.602,3045.58L900.723,3166.64L899.77,3297.59L943.356,3364.46" style="fill:none;stroke:black;stroke-width:50px;"/>
    <g transform="matrix(1,0,0,1,1923.59,-28)">
        <path d="M789.602,3045.58L900.723,3166.64L899.77,3297.59L943.356,3364.46" style="fill:none;stroke:black;stroke-width:50px;"/>
    </g>
    <path d="M922.469,3099.26L997.841,3160.31L1154.98,2981.15L1555.77,3004.42L1618.07,2951.24L1911.42,3131.04L2025.25,3012.6L2074.62,3099.26" style="fill:none;stroke:black;stroke-width:50px;"/>
    <g transform="matrix(1,0,0,1,1923.59,-28)">
        <path d="M922.469,3099.26L997.841,3160.31L1154.98,2981.15L1555.77,3004.42L1618.07,2951.24L1911.42,3131.04L2025.25,3012.6L2074.62,3099.26" style="fill:none;stroke:black;stroke-width:50px;"/>
    </g>
    <path d="M2446.54,3099.26C2351.78,3183.61 2251.91,3215.43 2145.14,3176.32" style="fill:none;stroke:black;stroke-width:50px;"/>
    <g transform="matrix(1,0,0,1,1923.59,-28)">
        <path d="M2446.54,3099.26C2351.78,3183.61 2251.91,3215.43 2145.14,3176.32" style="fill:none;stroke:black;stroke-width:50px;"/>
    </g>
    <g transform="matrix(1,0,0,1,3293.39,2266.34)">
        <path d="M0,-29.773C8.221,-30.766 15.69,-24.905 16.684,-16.684C17.676,-8.462 11.815,-0.993 3.595,0C-4.627,0.993 -12.097,-4.868 -13.09,-13.089C-14.082,-21.311 -8.222,-28.78 0,-29.773" style="fill:rgb(193,187,179);fill-rule:nonzero;"/>
    </g>
    <g transform="matrix(1,0,0,1,0.00304604,0.0002)">
        <g opacity="0.440002">
            <g transform="matrix(1,0,0,1,905.518,1687.12)">
                <path d="M0,0C0,11.778 -9.549,21.327 -21.327,21.327C-33.105,21.327 -42.653,11.778 -42.653,0C-42.653,-11.778 -33.105,-21.327 -21.327,-21.327C-9.549,-21.327 0,-11.778 0,0" style="fill:rgb(193,187,179);fill-rule:nonzero;"/>
            </g>
        </g>
    </g>
    <g transform="matrix(1,0,0,1,0.00304604,0.0002)">
        <g opacity="0.440002">
            <g transform="matrix(1,0,0,1,1076.18,1922.91)">
                <path d="M0,0.001C0,11.779 -9.549,21.327 -21.327,21.327C-33.105,21.327 -42.653,11.779 -42.653,0.001C-42.653,-11.777 -33.105,-21.326 -21.327,-21.326C-9.549,-21.326 0,-11.777 0,0.001" style="fill:rgb(193,187,179);fill-rule:nonzero;"/>
            </g>
        </g>
    </g>
    <g transform="matrix(1,0,0,1,0.00304604,0.0002)">
        <g opacity="0.440002">
            <g transform="matrix(1,0,0,1,1289.44,1788.89)">
                <path d="M0,0C0,8.281 -6.713,14.995 -14.994,14.995C-23.275,14.995 -29.989,8.281 -29.989,0C-29.989,-8.281 -23.275,-14.995 -14.994,-14.995C-6.713,-14.995 0,-8.281 0,0" style="fill:rgb(193,187,179);fill-rule:nonzero;"/>
            </g>
        </g>
    </g>
    <g transform="matrix(1,0,0,1,0.00304604,0.0002)">
        <g opacity="0.440002">
            <g transform="matrix(1,0,0,1,1259.45,2210.4)">
                <path d="M0,0C0,8.281 -6.713,14.995 -14.994,14.995C-23.275,14.995 -29.989,8.281 -29.989,0C-29.989,-8.282 -23.275,-14.995 -14.994,-14.995C-6.713,-14.995 0,-8.282 0,0" style="fill:rgb(193,187,179);fill-rule:nonzero;"/>
            </g>
        </g>
    </g>
    <g transform="matrix(1,0,0,1,0.00304604,0.0002)">
        <g opacity="0.440002">
            <g transform="matrix(1,0,0,1,1471.31,2458.97)">
                <path d="M0,0C0,8.281 -6.713,14.995 -14.994,14.995C-23.275,14.995 -29.989,8.281 -29.989,0C-29.989,-8.281 -23.275,-14.995 -14.994,-14.995C-6.713,-14.995 0,-8.281 0,0" style="fill:rgb(193,187,179);fill-rule:nonzero;"/>
            </g>
        </g>
    </g>
    <g transform="matrix(1,0,0,1,0.00304604,0.0002)">
        <g opacity="0.440002">
            <g transform="matrix(1,0,0,1,1138.91,2458.97)">
                <path d="M0,0C0,8.281 -6.714,14.995 -14.995,14.995C-23.276,14.995 -29.989,8.281 -29.989,0C-29.989,-8.281 -23.276,-14.995 -14.995,-14.995C-6.714,-14.995 0,-8.281 0,0" style="fill:rgb(193,187,179);fill-rule:nonzero;"/>
            </g>
        </g>
    </g>
    <g transform="matrix(1,0,0,1,0.00304604,0.0002)">
        <g opacity="0.440002">
            <g transform="matrix(1,0,0,1,1388.34,903.187)">
                <path d="M0,0C0,11.621 -9.42,21.042 -21.041,21.042C-32.662,21.042 -42.083,11.621 -42.083,0C-42.083,-11.621 -32.662,-21.042 -21.041,-21.042C-9.42,-21.042 0,-11.621 0,0" style="fill:rgb(193,187,179);fill-rule:nonzero;"/>
            </g>
        </g>
    </g>
    <g transform="matrix(1,0,0,1,0.00304604,0.0002)">
        <g opacity="0.440002">
            <g transform="matrix(1,0,0,1,1762.27,1082.38)">
                <path d="M0,0C0,11.621 -9.42,21.042 -21.041,21.042C-32.662,21.042 -42.083,11.621 -42.083,0C-42.083,-11.621 -32.662,-21.042 -21.041,-21.042C-9.42,-21.042 0,-11.621 0,0" style="fill:rgb(193,187,179);fill-rule:nonzero;"/>
            </g>
        </g>
    </g>
    <g transform="matrix(1,0,0,1,0.00304604,0.0002)">
        <g opacity="0.440002">
            <g transform="matrix(1,0,0,1,1019.26,1303.9)">
                <path d="M0,0C0,11.621 -9.421,21.042 -21.042,21.042C-32.662,21.042 -42.083,11.621 -42.083,0C-42.083,-11.621 -32.662,-21.042 -21.042,-21.042C-9.421,-21.042 0,-11.621 0,0" style="fill:rgb(193,187,179);fill-rule:nonzero;"/>
            </g>
        </g>
    </g>
    <g transform="matrix(1,0,0,1,0.00304604,0.0002)">
        <g opacity="0.440002">
            <g transform="matrix(1,0,0,1,1804.35,1334.75)">
                <path d="M0,0C0,11.621 -9.42,21.042 -21.041,21.042C-32.662,21.042 -42.083,11.621 -42.083,0C-42.083,-11.621 -32.662,-21.042 -21.041,-21.042C-9.42,-21.042 0,-11.621 0,0" style="fill:rgb(193,187,179);fill-rule:nonzero;"/>
            </g>
        </g>
    </g>
    <g transform="matrix(1,0,0,1,0.00304604,0.0002)">
        <g opacity="0.440002">
            <g transform="matrix(1,0,0,1,1371.25,1082.38)">
                <path d="M0,0C0,6.9 -5.594,12.494 -12.494,12.494C-19.395,12.494 -24.988,6.9 -24.988,0C-24.988,-6.9 -19.395,-12.494 -12.494,-12.494C-5.594,-12.494 0,-6.9 0,0" style="fill:rgb(193,187,179);fill-rule:nonzero;"/>
            </g>
        </g>
    </g>
    <g transform="matrix(1,0,0,1,0.00304604,0.0002)">
        <g opacity="0.440002">
            <g transform="matrix(1,0,0,1,2555.08,2603.14)">
                <clipPath id="_clip1">
                    <rect x="-18.77" y="-42.499" width="42.65" height="42.66" clip-rule="nonzero"/>
                </clipPath>
                <g clip-path="url(#_clip1)">
                    <path d="M0,-42.345C11.693,-43.757 22.317,-35.422 23.729,-23.728C25.141,-12.035 16.807,-1.411 5.113,0.001C-6.58,1.412 -17.204,-6.922 -18.616,-18.616C-20.028,-30.309 -11.693,-40.933 0,-42.345" style="fill:rgb(193,187,179);fill-rule:nonzero;"/>
                </g>
            </g>
        </g>
    </g>
    <g transform="matrix(1,0,0,1,0.00304604,0.0002)">
        <g opacity="0.440002">
            <g transform="matrix(1,0,0,1,2768.71,2405.44)">
                <path d="M0,-42.345C11.693,-43.757 22.317,-35.422 23.729,-23.729C25.141,-12.035 16.806,-1.411 5.112,0C-6.581,1.412 -17.205,-6.923 -18.616,-18.616C-20.028,-30.309 -11.693,-40.933 0,-42.345" style="fill:rgb(193,187,179);fill-rule:nonzero;"/>
            </g>
        </g>
    </g>
    <g transform="matrix(1,0,0,1,0.00304604,0.0002)">
        <g opacity="0.440002">
            <g transform="matrix(1,0,0,1,2610.09,2197.22)">
                <clipPath id="_clip2">
                    <rect x="-13.194" y="-29.88" width="29.99" height="29.99" clip-rule="nonzero"/>
                </clipPath>
                <g clip-path="url(#_clip2)">
                    <path d="M0,-29.773C8.222,-30.766 15.691,-24.905 16.684,-16.684C17.677,-8.462 11.816,-0.993 3.595,0C-4.627,0.993 -12.097,-4.868 -13.09,-13.089C-14.082,-21.311 -8.222,-28.78 0,-29.773" style="fill:rgb(193,187,179);fill-rule:nonzero;"/>
                </g>
            </g>
        </g>
    </g>
    <g transform="matrix(1,0,0,1,0.00304604,0.0002)">
        <g opacity="0.440002">
            <g transform="matrix(1,0,0,1,3032.16,2176.47)">
                <clipPath id="_clip3">
                    <rect x="-13.201" y="-29.887" width="29.99" height="30" clip-rule="nonzero"/>
                </clipPath>
                <g clip-path="url(#_clip3)">
                    <path d="M0,-29.773C8.222,-30.766 15.691,-24.905 16.685,-16.684C17.677,-8.462 11.816,-0.993 3.595,0C-4.626,0.993 -12.096,-4.867 -13.089,-13.089C-14.081,-21.311 -8.221,-28.78 0,-29.773" style="fill:rgb(193,187,179);fill-rule:nonzero;"/>
                </g>
            </g>
        </g>
    </g>
    <g transform="matrix(1,0,0,1,0.00304604,0.0002)">
        <g opacity="0.440002">
            <g transform="matrix(1,0,0,1,3253.54,1936.34)">
                <clipPath id="_clip4">
                    <rect x="-13.194" y="-29.885" width="29.99" height="29.99" clip-rule="nonzero"/>
                </clipPath>
                <g clip-path="url(#_clip4)">
                    <path d="M0,-29.773C8.222,-30.766 15.691,-24.905 16.685,-16.684C17.677,-8.462 11.816,-0.993 3.595,0C-4.627,0.993 -12.096,-4.867 -13.089,-13.089C-14.081,-21.311 -8.222,-28.78 0,-29.773" style="fill:rgb(193,187,179);fill-rule:nonzero;"/>
                </g>
            </g>
        </g>
    </g>
    <g transform="matrix(1,0,0,1,0.00304604,0.0002)">
        <g opacity="0.440002">
            <g transform="matrix(1,0,0,1,1718.92,2217.2)">
                <clipPath id="_clip5">
                    <rect x="-18.52" y="-41.93" width="42.09" height="42.08" clip-rule="nonzero"/>
                </clipPath>
                <g clip-path="url(#_clip5)">
                    <path d="M0,-41.779C11.537,-43.172 22.019,-34.949 23.412,-23.412C24.805,-11.875 16.581,-1.393 5.044,0C-6.493,1.393 -16.975,-6.83 -18.368,-18.367C-19.761,-29.904 -11.537,-40.386 0,-41.779" style="fill:rgb(193,187,179);fill-rule:nonzero;"/>
                </g>
            </g>
        </g>
    </g>
    <g transform="matrix(1,0,0,1,0.00304604,0.0002)">
        <g opacity="0.440002">
            <g transform="matrix(1,0,0,1,1852,1824.49)">
                <clipPath id="_clip6">
                    <rect x="-18.521" y="-41.928" width="42.09" height="42.08" clip-rule="nonzero"/>
                </clipPath>
                <g clip-path="url(#_clip6)">
                    <path d="M0,-41.779C11.537,-43.172 22.02,-34.949 23.412,-23.412C24.806,-11.875 16.582,-1.393 5.045,0C-6.492,1.393 -16.975,-6.83 -18.367,-18.367C-19.761,-29.904 -11.537,-40.386 0,-41.779" style="fill:rgb(193,187,179);fill-rule:nonzero;"/>
                </g>
            </g>
        </g>
    </g>
    <g transform="matrix(1,0,0,1,0.00304604,0.0002)">
        <g opacity="0.440002">
            <g transform="matrix(1,0,0,1,2160.99,2535.58)">
                <clipPath id="_clip7">
                    <rect x="-18.519" y="-41.934" width="42.08" height="42.09" clip-rule="nonzero"/>
                </clipPath>
                <g clip-path="url(#_clip7)">
                    <path d="M0,-41.779C11.537,-43.172 22.02,-34.949 23.412,-23.411C24.806,-11.874 16.582,-1.393 5.045,0C-6.492,1.393 -16.975,-6.83 -18.367,-18.367C-19.761,-29.904 -11.537,-40.386 0,-41.779" style="fill:rgb(193,187,179);fill-rule:nonzero;"/>
                </g>
            </g>
        </g>
    </g>
    <g transform="matrix(1,0,0,1,0.00304604,0.0002)">
        <g opacity="0.440002">
            <g transform="matrix(1,0,0,1,2097.5,1752.46)">
                <clipPath id="_clip8">
                    <rect x="-18.521" y="-41.929" width="42.09" height="42.08" clip-rule="nonzero"/>
                </clipPath>
                <g clip-path="url(#_clip8)">
                    <path d="M0,-41.779C11.537,-43.172 22.02,-34.949 23.412,-23.411C24.805,-11.874 16.582,-1.392 5.045,0C-6.492,1.393 -16.975,-6.83 -18.367,-18.367C-19.761,-29.904 -11.537,-40.386 0,-41.779" style="fill:rgb(193,187,179);fill-rule:nonzero;"/>
                </g>
            </g>
        </g>
    </g>
    <g transform="matrix(1,0,0,1,0.00304604,0.0002)">
        <g opacity="0.440002">
            <g transform="matrix(1,0,0,1,2294.96,2084.94)">
                <clipPath id="_clip9">
                    <rect x="-18.517" y="-41.929" width="42.08" height="42.08" clip-rule="nonzero"/>
                </clipPath>
                <g clip-path="url(#_clip9)">
                    <path d="M0,-41.78C11.537,-43.173 22.02,-34.949 23.412,-23.412C24.805,-11.875 16.582,-1.393 5.045,0C-6.492,1.393 -16.975,-6.831 -18.367,-18.368C-19.761,-29.905 -11.537,-40.387 0,-41.78" style="fill:rgb(193,187,179);fill-rule:nonzero;"/>
                </g>
            </g>
        </g>
    </g>
    <g transform="matrix(1,0,0,1,0.00304604,0.0002)">
        <g opacity="0.440002">
            <g transform="matrix(1,0,0,1,1898.87,2195.72)">
                <clipPath id="_clip10">
                    <rect x="-11.002" y="-24.901" width="24.99" height="24.99" clip-rule="nonzero"/>
                </clipPath>
                <g clip-path="url(#_clip10)">
                    <path d="M0,-24.807C6.851,-25.634 13.074,-20.751 13.901,-13.901C14.729,-7.051 9.846,-0.827 2.995,0C-3.855,0.827 -10.079,-4.056 -10.906,-10.906C-11.733,-17.756 -6.851,-23.98 0,-24.807" style="fill:rgb(193,187,179);fill-rule:nonzero;"/>
                </g>
            </g>
        </g>
    </g>
    <g transform="matrix(1,0,0,1,35.4086,0)">
        <g opacity="0.440002">
            <g transform="matrix(1,0,0,1,1317.85,3862.22)">
                <path d="M0,0C0,7.846 -6.359,14.206 -14.205,14.206C-22.051,14.206 -28.411,7.846 -28.411,0C-28.411,-7.845 -22.051,-14.206 -14.205,-14.206C-6.359,-14.206 0,-7.845 0,0" style="fill:rgb(193,187,179);fill-rule:nonzero;"/>
            </g>
        </g>
    </g>
    <g transform="matrix(1,0,0,1,35.4086,0)">
        <g opacity="0.440002">
            <g transform="matrix(1,0,0,1,1435.19,4046.13)">
                <path d="M0,0C0,7.846 -6.36,14.206 -14.206,14.206C-22.052,14.206 -28.412,7.846 -28.412,0C-28.412,-7.845 -22.052,-14.206 -14.206,-14.206C-6.36,-14.206 0,-7.845 0,0" style="fill:rgb(193,187,179);fill-rule:nonzero;"/>
            </g>
        </g>
    </g>
    <g transform="matrix(1,0,0,1,35.4086,0)">
        <g opacity="0.440002">
            <g transform="matrix(1,0,0,1,1861.63,3800.56)">
                <path d="M0,0C0,7.845 -6.36,14.206 -14.205,14.206C-22.051,14.206 -28.411,7.845 -28.411,0C-28.411,-7.846 -22.051,-14.206 -14.205,-14.206C-6.36,-14.206 0,-7.846 0,0" style="fill:rgb(193,187,179);fill-rule:nonzero;"/>
            </g>
        </g>
    </g>
    <g transform="matrix(1,0,0,1,35.4086,0)">
        <g opacity="0.440002">
            <g transform="matrix(1,0,0,1,998.492,3643.02)">
                <path d="M0,0C0,7.846 -6.36,14.206 -14.206,14.206C-22.052,14.206 -28.411,7.846 -28.411,0C-28.411,-7.845 -22.052,-14.206 -14.206,-14.206C-6.36,-14.206 0,-7.845 0,0" style="fill:rgb(193,187,179);fill-rule:nonzero;"/>
            </g>
        </g>
    </g>
    <g transform="matrix(1,0,0,1,35.4086,0)">
        <g opacity="0.440002">
            <g transform="matrix(1,0,0,1,3175.11,3911.76)">
                <path d="M0,0C0,7.846 -6.359,14.206 -14.205,14.206C-22.051,14.206 -28.411,7.846 -28.411,0C-28.411,-7.846 -22.051,-14.206 -14.205,-14.206C-6.359,-14.206 0,-7.846 0,0" style="fill:rgb(193,187,179);fill-rule:nonzero;"/>
            </g>
        </g>
    </g>
    <g transform="matrix(1,0,0,1,35.4086,0)">
        <g opacity="0.440002">
            <g transform="matrix(1,0,0,1,3292.44,4095.67)">
                <path d="M0,0C0,7.845 -6.36,14.206 -14.206,14.206C-22.052,14.206 -28.411,7.845 -28.411,0C-28.411,-7.846 -22.052,-14.206 -14.206,-14.206C-6.36,-14.206 0,-7.846 0,0" style="fill:rgb(193,187,179);fill-rule:nonzero;"/>
            </g>
        </g>
    </g>
    <g transform="matrix(1,0,0,1,35.4086,0)">
        <g opacity="0.440002">
            <g transform="matrix(1,0,0,1,3718.89,3850.1)">
                <path d="M0,0C0,7.846 -6.36,14.206 -14.205,14.206C-22.051,14.206 -28.411,7.846 -28.411,0C-28.411,-7.845 -22.051,-14.206 -14.205,-14.206C-6.36,-14.206 0,-7.845 0,0" style="fill:rgb(193,187,179);fill-rule:nonzero;"/>
            </g>
        </g>
    </g>
    <g transform="matrix(1,0,0,1,35.4086,0)">
        <g opacity="0.440002">
            <g transform="matrix(1,0,0,1,2855.75,3692.56)">
                <path d="M0,0C0,7.845 -6.36,14.206 -14.206,14.206C-22.052,14.206 -28.411,7.845 -28.411,0C-28.411,-7.846 -22.052,-14.206 -14.206,-14.206C-6.36,-14.206 0,-7.846 0,0" style="fill:rgb(193,187,179);fill-rule:nonzero;"/>
            </g>
        </g>
    </g>
</svg>
